<svg width="37" height="29" viewBox="0 0 37 29" fill="none" xmlns="http://www.w3.org/2000/svg">
<path d="M0 29V21.1277C0 18.6966 0.43344 16.1883 1.30032 13.6028C2.2066 10.9787 3.44782 8.48969 5.02396 6.13573C6.63951 3.74318 8.47178 1.69794 10.5208 0L17.6134 4.34132C16.0373 6.77246 14.737 9.33866 13.7125 12.0399C12.7274 14.7026 12.2348 17.7126 12.2348 21.0699V29H0ZM19.3866 29V21.1277C19.3866 18.6966 19.82 16.1883 20.6869 13.6028C21.5932 10.9787 22.8344 8.48969 24.4105 6.13573C26.0261 3.74318 27.8584 1.69794 29.9073 0L37 4.34132C35.4239 6.77246 34.1235 9.33866 33.099 12.0399C32.1139 14.7026 31.6214 17.7126 31.6214 21.0699V29H19.3866Z" fill="#2C2C2E" fill-opacity="0.3"/>
</svg>
