<svg width="28" height="34" viewBox="0 0 28 34" fill="none" xmlns="http://www.w3.org/2000/svg">
<path d="M17.3334 0.333344H4.00002C2.16669 0.333344 0.666687 1.83334 0.666687 3.66668V30.3333C0.666687 32.1667 2.16669 33.6667 4.00002 33.6667H24C25.8334 33.6667 27.3334 32.1667 27.3334 30.3333V10.3333L17.3334 0.333344ZM19 15.3333H12.3334V17H17.3334C18.25 17 19 17.75 19 18.6667V23.6667C19 24.5833 18.25 25.3333 17.3334 25.3333H15.6667V27H12.3334V25.3333H9.00002V22H15.6667V20.3333H10.6667C9.75002 20.3333 9.00002 19.5833 9.00002 18.6667V13.6667C9.00002 12.75 9.75002 12 10.6667 12H12.3334V10.3333H15.6667V12H19V15.3333Z" fill="#E63946"/>
</svg>
