<svg width="34" height="34" viewBox="0 0 34 34" fill="none" xmlns="http://www.w3.org/2000/svg">
<path d="M20.1306 21.2077C19.9871 21.4714 19.807 21.7132 19.5957 21.9261C19.4581 22.065 19.3074 22.1902 19.1456 22.2998C19.4752 21.9362 19.8036 21.5722 20.1306 21.2077ZM22.2946 5.34948C21.8636 5.72921 21.4334 6.11063 21.0041 6.49375C21.1238 6.29142 21.2682 6.1048 21.4338 5.93815C21.6818 5.69007 21.9737 5.49045 22.2946 5.34948ZM28.0245 12.5469C27.9222 12.6494 27.812 12.7438 27.6949 12.8292C27.9426 12.5545 28.1919 12.2808 28.4429 12.0078C28.3253 12.2036 28.1849 12.3846 28.0245 12.5469ZM2.59723 21.3933L5.43559 18.8569L7.67179 16.857C11.8366 13.1343 16.0005 9.4112 20.1636 5.68768C20.6326 5.26388 21.1017 4.84474 21.5707 4.43026C22.388 3.69793 23.206 2.9673 24.025 2.23836C26.09 0.397365 29.0488 0.640204 31.2026 2.76981C33.3564 4.89941 33.6112 7.98256 31.7338 10.0702C30.9335 10.9585 30.1327 11.8485 29.3315 12.7402C29.0653 13.0377 28.7974 13.3343 28.5278 13.6301C26.0262 16.4069 23.5217 19.1819 21.0142 21.9553L19.9557 23.1275C19.0413 24.1447 18.1264 25.1575 17.2111 26.1662L14.9014 28.7243C14.0614 29.6566 13.2217 30.589 12.3825 31.5213C11.4242 32.583 10.2351 33.047 8.82412 32.9949C4.93866 32.8678 0.99868 28.7993 1.00248 24.7308C0.956844 23.4721 1.54125 22.338 2.59723 21.3933ZM16.9741 24.699L17.5699 24.0417L18.2164 23.3271L18.5967 22.9114L19.1482 22.2998C19.4778 21.9362 19.8061 21.5722 20.1332 21.2077C20.4476 20.8606 20.7594 20.5135 21.0725 20.1664L21.6988 19.471L22.9348 18.0991L24.8743 15.9466C25.1186 15.6763 25.3628 15.4059 25.607 15.1355C25.7862 14.9371 25.9654 14.7392 26.1445 14.5417L26.748 13.8743L27.6962 12.8292C27.9438 12.5545 28.1931 12.2808 28.4441 12.0078C28.7636 11.6552 29.0843 11.3035 29.4063 10.9526L30.0249 10.2774C30.188 10.0969 30.3524 9.91722 30.5181 9.73837C31.7439 8.40467 32.2814 7.00358 31.5233 5.28846C30.7158 3.46272 29.3594 2.23709 27.3083 2.22946C26.4856 2.22946 25.4739 2.54604 24.8655 3.0813C24.5409 3.36609 24.2172 3.65216 23.8944 3.9395C23.6721 4.13445 23.4503 4.33024 23.2289 4.52689L22.2946 5.3533C21.8636 5.73303 21.4334 6.11445 21.0041 6.49756L20.0913 7.30745L18.906 8.36271L18.0922 9.08741L15.8978 11.0479L14.2688 12.5062L13.4347 13.2525C12.6513 13.9535 11.8687 14.6549 11.0869 15.3567L9.89532 16.426L9.21584 17.035L8.32845 17.8309L6.3217 19.6261L5.84759 20.0507C5.72082 20.1601 5.62955 20.2948 5.42671 20.525C5.6156 20.5707 5.79942 20.6165 5.97816 20.6635C9.99166 21.7175 11.5027 23.261 13.3003 28.0568C13.3599 28.217 13.4208 28.3822 13.4816 28.5501L14.1598 27.8012C14.8545 27.0384 15.5429 26.2793 16.2249 25.5241C16.4767 25.2495 16.7265 24.9745 16.9741 24.699ZM8.9623 31.8189C10.7371 31.8189 11.8843 30.8488 12.0884 29.229C12.1105 29.0519 12.1215 28.8735 12.1214 28.695C12.1214 28.6213 12.1214 28.5475 12.1214 28.4725C11.9807 25.3105 8.49072 21.8828 5.33671 21.8104C5.14662 21.8058 4.95645 21.8143 4.76752 21.8358C3.12966 22.0252 2.10537 23.214 2.10537 24.98C2.12565 28.1992 5.73983 31.8036 8.9623 31.8189Z" fill="#8E8E93" stroke="#8E8E93" stroke-width="0.2"/>
<path d="M12.4841 29.275C13.9165 29.275 15.2005 28.7664 16.1335 27.8346C16.9471 27.0062 17.4454 25.918 17.5418 24.7593C17.7458 22.7036 16.8699 20.4763 15.2005 18.802C13.9659 17.5638 12.4118 16.7463 10.8337 16.501C10.2758 16.4136 9.70877 16.4021 9.14783 16.4666C8.03397 16.5843 6.9928 17.0773 6.19436 17.8651C5.19677 18.8643 4.68974 20.2805 4.76706 21.834L5.90788 21.7781C5.84831 20.545 6.23745 19.4427 7.00307 18.6736C7.62103 18.0681 8.42528 17.6903 9.28472 17.6019C9.74279 17.549 10.2059 17.5588 10.6613 17.6311C12.005 17.8333 13.3296 18.5401 14.3943 19.6131C15.8242 21.042 16.5771 22.9185 16.406 24.6423C16.3343 25.5376 15.9527 26.3795 15.3273 27.0222C14.5439 27.8066 13.4259 28.1956 12.1583 28.1168L12.0873 29.261C12.2242 29.2673 12.3548 29.275 12.4841 29.275Z" fill="#8E8E93" stroke="#8E8E93" stroke-width="0.2"/>
<path d="M19.1457 22.3004C19.1863 22.2737 19.2256 22.2445 19.2649 22.2152C19.3042 22.186 19.3562 22.144 19.4005 22.1072C19.4449 22.0703 19.4576 22.0576 19.4855 22.0322C19.5133 22.0067 19.5602 21.9622 19.5957 21.9267C19.6312 21.8911 19.6718 21.8478 19.7073 21.8071C19.7428 21.7665 19.7491 21.7614 19.7681 21.7372C19.8239 21.6724 19.8759 21.6101 19.9253 21.5351L19.9773 21.4614C19.99 21.4423 20.0026 21.4232 20.014 21.4041C20.0546 21.3406 20.0939 21.277 20.1307 21.2084C20.3206 20.8556 20.4492 20.473 20.5109 20.0769C20.7518 18.5272 20.0863 16.7436 18.7667 15.4176C17.2697 13.9175 15.2441 13.2793 13.6026 13.7929C13.1034 13.944 12.6489 14.216 12.2793 14.5849C11.9966 14.8697 11.2487 14.9765 11.0877 15.3477L10.5629 15.1214C10.7778 14.6181 11.0867 14.1607 11.4731 13.7738C11.9727 13.272 12.5885 12.902 13.2654 12.697C13.5922 12.5955 13.9287 12.5286 14.2694 12.4974C16.0757 12.3245 18.0658 13.0949 19.5729 14.6065C20.9343 15.9706 21.7075 17.7733 21.6961 19.4641C21.6983 19.7267 21.6792 19.9891 21.6391 20.2485C21.5485 20.8494 21.3391 21.426 21.023 21.9445C20.8498 22.229 20.6434 22.4919 20.4083 22.7276C20.2695 22.8674 20.1213 22.9973 19.9646 23.1166C19.4883 23.4746 18.9445 23.732 18.3662 23.873L18.228 23.3175L19.1457 22.3004Z" fill="#8E8E93" stroke="#8E8E93" stroke-width="0.2"/>
<path d="M15.3723 10.824L15.8983 11.0439L16.1303 10.7655C16.2735 10.421 16.7413 10.3193 17.0011 10.0587C17.3383 9.72176 17.7794 9.77261 18.2535 9.63277C18.8139 9.47331 19.4034 9.4459 19.9761 9.55268C21.0759 9.76242 22.0848 10.3061 22.8662 11.11C23.6674 11.8928 24.2091 12.9039 24.4177 14.006C24.5284 14.5943 24.4975 15.2005 24.3277 15.7744C24.1845 16.2359 23.8385 16.555 23.6217 16.9618C23.3517 17.4703 23.2756 17.9547 22.9321 18.0983L23.1514 18.6259C23.6289 18.4277 24.0626 18.1369 24.4279 17.7703C24.8878 17.3093 25.2274 16.7417 25.4166 16.1177C25.5146 15.7988 25.5775 15.4701 25.6042 15.1375C25.6209 14.943 25.6256 14.7477 25.6181 14.5527C25.6102 14.305 25.5848 14.0582 25.5421 13.8141C25.518 13.6742 25.4888 13.5357 25.4546 13.3971C25.1488 12.2221 24.5312 11.1523 23.6673 10.3015C22.7212 9.33155 21.5008 8.67653 20.1713 8.42504C19.753 8.35186 19.3274 8.32966 18.9038 8.35893C18.5725 8.382 18.2448 8.44126 17.9264 8.53564C17.2829 8.72225 16.6969 9.06905 16.2228 9.54378C15.8582 9.91033 15.5692 10.3454 15.3723 10.824Z" fill="#8E8E93" stroke="#8E8E93" stroke-width="0.2"/>
<path d="M25.0796 13.3467L24.8818 14.473C25.1251 14.5168 25.3712 14.5427 25.6183 14.5506C25.6103 14.3029 25.5849 14.0561 25.5422 13.812C25.5181 13.6721 25.489 13.5336 25.4548 13.395C25.3305 13.3835 25.2051 13.3683 25.0796 13.3467Z" fill="#8E8E93" stroke="#8E8E93" stroke-width="0.2"/>
<path d="M20.0921 7.3033H19.5217V7.24355L19.5343 7.18507C19.6458 6.64985 19.8611 6.14185 20.1681 5.69002C20.305 5.49055 20.4594 5.30377 20.6295 5.13193C20.908 4.85265 21.2268 4.61694 21.5751 4.43271C22.0721 4.17163 22.615 4.01014 23.1736 3.95725H23.204C23.4345 3.93562 23.6662 3.93052 23.8974 3.94199C25.3766 4.00683 26.8939 4.70477 28.0804 5.89216C29.3277 7.14312 30.0249 8.73605 30.0312 10.2781C30.0324 10.518 30.0163 10.7576 29.983 10.9952V11.0384C29.8983 11.6454 29.682 12.2265 29.3492 12.7406C29.2014 12.964 29.0316 13.1719 28.8422 13.361C28.7476 13.4573 28.6472 13.5477 28.5418 13.6318C28.058 14.0218 27.4925 14.297 26.8876 14.4366L26.8229 14.4518C26.6034 14.5004 26.3805 14.5322 26.1562 14.5472L26.7596 13.8797L27.7077 12.8347C27.8247 12.7494 27.9349 12.655 28.0373 12.5525C28.1976 12.3902 28.3381 12.2092 28.4556 12.0135C28.6542 11.675 28.7871 11.3019 28.8473 10.9138L28.8536 10.8718C29.0628 9.48485 28.4594 7.8881 27.2793 6.70452C26.1384 5.56035 24.6541 4.96666 23.2978 5.10269H23.2813C22.9448 5.13608 22.6155 5.22186 22.3053 5.35695C21.9846 5.49752 21.6927 5.69668 21.4446 5.94428C21.2764 6.10803 21.129 6.29208 21.006 6.49221L20.0921 7.3033Z" fill="#8E8E93" stroke="#8E8E93" stroke-width="0.2"/>
</svg>
