<svg width="24" height="24" viewBox="0 0 24 24" fill="none" xmlns="http://www.w3.org/2000/svg">
<path fill-rule="evenodd" clip-rule="evenodd" d="M11.7647 0.155842C8.78431 0.155842 8.31372 0.155847 7.05882 0.233769C5.80392 0.311691 4.86273 0.467532 4.15685 0.779221C3.37254 1.09091 2.66667 1.48052 2.03922 2.18182C1.33334 2.88312 0.941167 3.50649 0.627441 4.28571C0.313716 5.06493 0.156868 5.92208 0.0784362 7.16883C4.7854e-06 8.41558 0 8.88312 0 12.0779C0 15.2727 4.7854e-06 15.7403 0.0784362 16.987C0.156868 18.2338 0.313716 19.1688 0.627441 19.8701C0.941167 20.6493 1.33334 21.3506 2.03922 21.974C2.7451 22.6753 3.37254 23.0649 4.15685 23.3766C4.94117 23.6883 5.80392 23.8442 7.05882 23.9221C8.31372 24 8.7843 24 12 24C15.2941 24 15.6863 24 16.9412 23.9221C18.1961 23.8442 19.1372 23.6883 19.8431 23.3766C20.6274 23.0649 21.3333 22.6753 21.9608 21.974C22.6667 21.2727 23.0588 20.6493 23.3725 19.8701C23.6863 19.0909 23.8431 18.2338 23.9216 16.987C24 15.7403 24 15.3507 24 12.3117V11.6883C24 8.72727 24 8.25974 23.9216 7.01299C23.8431 5.76623 23.6863 4.83117 23.3725 4.12987C23.0588 3.35065 22.6667 2.64935 21.9608 2.02597C21.2549 1.32467 20.6274 0.935067 19.8431 0.623379C19.0588 0.311691 18.1961 0.155843 16.9412 0.0779209C15.6863 -1.19209e-06 15.2941 0 12.2353 0H11.7647V0.155842ZM20 5.76623C20 6.54546 19.3725 7.16883 18.5882 7.16883C17.8039 7.16883 17.1765 6.54546 17.1765 5.76623C17.1765 4.98701 17.8039 4.36364 18.5882 4.36364C19.2941 4.28571 20 4.98701 20 5.76623ZM12.0784 16.1299C9.88235 16.1299 8.07842 14.3377 8.07842 12.1558C8.07842 9.97402 9.88235 8.18182 12.0784 8.18182C14.2745 8.18182 16.0784 9.97402 16.0784 12.1558C16.0784 14.3377 14.2745 16.1299 12.0784 16.1299ZM12.0784 6C15.5294 6 18.2745 8.72727 18.2745 12.1558C18.2745 15.5844 15.5294 18.3117 12.0784 18.3117C8.62744 18.3117 5.88235 15.5844 5.88235 12.1558C5.88235 8.72727 8.70588 6 12.0784 6ZM12.0784 2.33766C15.2941 2.33766 15.6863 2.33766 16.9412 2.41558C18.1176 2.49351 18.7451 2.64935 19.2157 2.80519C19.7647 3.03896 20.1568 3.27272 20.6274 3.66234C21.0196 4.05195 21.3333 4.44156 21.4902 5.06494C21.6471 5.45455 21.8823 6.15585 21.8823 7.32468C21.9608 8.57143 21.9608 8.96104 21.9608 12.1558C21.9608 15.3506 21.9608 15.7403 21.8823 16.987C21.8039 18.1558 21.6471 18.7792 21.4902 19.2467C21.2549 19.7922 21.0196 20.1818 20.6274 20.6493C20.2353 21.039 19.8431 21.3506 19.2157 21.5065C18.8235 21.6623 18.1176 21.8961 16.9412 21.8961C15.6863 21.974 15.2941 21.974 12.0784 21.974C8.86274 21.974 8.47057 21.974 7.21567 21.8961C6.0392 21.8182 5.41175 21.6623 4.94117 21.5065C4.39215 21.2727 4 21.039 3.52941 20.6493C3.13725 20.2597 2.82352 19.8701 2.66666 19.2467C2.5098 18.8571 2.2745 18.1558 2.2745 16.987C2.19607 15.7403 2.19607 15.3506 2.19607 12.1558C2.19607 8.96104 2.19607 8.57143 2.2745 7.32468C2.35294 6.15585 2.5098 5.53247 2.66666 5.06494C2.90196 4.51948 3.13725 4.12987 3.52941 3.66234C3.92157 3.27272 4.31372 2.96104 4.94117 2.80519C5.33332 2.64935 6.0392 2.41558 7.21567 2.41558C8.47057 2.33766 8.86274 2.33766 12.0784 2.33766Z" fill="#2C2C2E"/>
<path fill-rule="evenodd" clip-rule="evenodd" d="M12.2218 0.612985H11.7647C8.78153 0.612985 8.32541 0.613144 7.08715 0.690033C5.84422 0.767212 4.97028 0.919772 4.34151 1.19741L4.33366 1.20088L4.32568 1.20405C3.57918 1.50071 2.94349 1.85673 2.37991 2.48663L2.37095 2.49665L2.36141 2.50612C1.70014 3.1631 1.34236 3.73403 1.0515 4.45645C0.763447 5.17192 0.611605 5.97468 0.534677 7.19753C0.457319 8.42723 0.457143 8.87968 0.457143 12.0779C0.457143 15.2762 0.457319 15.7286 0.534677 16.9583C0.61234 18.1928 0.765802 19.0599 1.04473 19.6835L1.04827 19.6914L1.0515 19.6994C1.3498 20.4403 1.70782 21.0715 2.34182 21.6314L2.35189 21.6403L2.36141 21.6497C3.0227 22.3067 3.59771 22.6625 4.32568 22.9518C5.04681 23.2384 5.8558 23.3894 7.08715 23.4658C8.32522 23.5427 8.78091 23.5429 12 23.5429C15.2973 23.5429 15.6747 23.5427 16.9128 23.4658C18.1558 23.3886 19.0297 23.2361 19.6585 22.9584L19.6663 22.955L19.6743 22.9518C20.4208 22.6551 21.0565 22.2991 21.6201 21.6692L21.6291 21.6592L21.6386 21.6497C22.2999 20.9928 22.6576 20.4218 22.9485 19.6994C23.2365 18.9839 23.3884 18.1812 23.4653 16.9583C23.5427 15.7284 23.5429 15.3533 23.5429 12.3117V11.6883C23.5429 8.72446 23.5427 8.27158 23.4653 7.04169C23.3877 5.80716 23.2342 4.94007 22.9552 4.31655L22.9517 4.30864L22.9485 4.30061C22.6502 3.55971 22.2922 2.92852 21.6582 2.36863L21.6481 2.35974L21.6386 2.35027C20.9773 1.69329 20.4023 1.33751 19.6743 1.0482C18.9532 0.761623 18.1442 0.610645 16.9128 0.534185C15.6745 0.457292 15.2967 0.457143 12.2353 0.457143H12.2218V0.612985ZM11.7647 0.155842C8.78431 0.155842 8.31372 0.155847 7.05882 0.233769C5.80392 0.311691 4.86273 0.467532 4.15685 0.779221C3.37254 1.09091 2.66667 1.48052 2.03922 2.18182C1.33334 2.88312 0.941167 3.50649 0.627441 4.28571C0.313716 5.06494 0.156868 5.92208 0.0784361 7.16883C4.7854e-06 8.41558 0 8.88312 0 12.0779C0 15.2727 4.7854e-06 15.7403 0.0784361 16.987C0.156868 18.2338 0.313716 19.1688 0.627441 19.8701C0.941167 20.6493 1.33334 21.3506 2.03922 21.974C2.7451 22.6753 3.37254 23.0649 4.15685 23.3766C4.94117 23.6883 5.80392 23.8442 7.05882 23.9221C8.31372 24 8.7843 24 12 24C15.2941 24 15.6863 24 16.9412 23.9221C18.1961 23.8442 19.1372 23.6883 19.8431 23.3766C20.6274 23.0649 21.3333 22.6753 21.9608 21.974C22.6667 21.2727 23.0588 20.6493 23.3725 19.8701C23.6863 19.0909 23.8431 18.2338 23.9216 16.987C24 15.7403 24 15.3507 24 12.3117V11.6883C24 8.72727 24 8.25974 23.9216 7.01299C23.8431 5.76623 23.6863 4.83117 23.3725 4.12987C23.0588 3.35065 22.6667 2.64935 21.9608 2.02597C21.2549 1.32467 20.6274 0.935067 19.8431 0.623379C19.0588 0.311691 18.1961 0.155843 16.9412 0.0779209C15.6863 0 15.2941 0 12.2353 0H11.7647V0.155842ZM18.6134 4.82078H18.5882C18.0536 4.82078 17.6336 5.24229 17.6336 5.76623C17.6336 6.29018 18.0536 6.71169 18.5882 6.71169C19.1229 6.71169 19.5429 6.29017 19.5429 5.76623C19.5429 5.51318 19.4261 5.25601 19.2366 5.06781C19.0456 4.87799 18.823 4.79764 18.6384 4.81802L18.6134 4.82078ZM16.9695 1.95932L16.9714 1.95944C18.182 2.03962 18.848 2.20187 19.3594 2.37123L19.3774 2.37718L19.3948 2.38459C19.9826 2.63487 20.4129 2.89125 20.919 3.31021L20.9349 3.32343L20.9496 3.33804C21.3633 3.749 21.7371 4.20218 21.9256 4.92265C22.0987 5.35876 22.3376 6.10763 22.3395 7.31016C22.4179 8.56025 22.4179 8.97439 22.4179 12.137V12.1747C22.4179 15.3492 22.4179 15.7545 22.3386 17.0157L22.3385 17.0176C22.2577 18.221 22.0943 18.8834 21.9236 19.3922L21.9175 19.4103L21.9099 19.4278C21.6578 20.0124 21.3995 20.4402 20.9777 20.9431L20.9643 20.959L20.9496 20.9736C20.5356 21.3849 20.08 21.7557 19.3563 21.9425C18.918 22.1142 18.1651 22.3514 16.9555 22.3532C15.6974 22.4312 15.281 22.4312 12.0978 22.4312H12.0591C8.86409 22.4312 8.4564 22.4312 7.18734 22.3524L7.18546 22.3523C5.97489 22.2721 5.30885 22.1098 4.79745 21.9405L4.77949 21.9345L4.76208 21.9271C4.17427 21.6768 3.74392 21.4204 3.23788 21.0015L3.22192 20.9883L3.20722 20.9736C2.79357 20.5627 2.4197 20.1095 2.23122 19.389C2.05812 18.9529 1.81928 18.2041 1.81737 17.0015C1.73893 15.7515 1.73893 15.3373 1.73893 12.1748V12.1368C1.73893 8.96245 1.73893 8.55715 1.81826 7.29598L1.81838 7.29407C1.89914 6.09068 2.06257 5.42826 2.23326 4.91952L2.23934 4.90141L2.24691 4.88386C2.49906 4.29933 2.75735 3.87145 3.17916 3.36856L3.1925 3.35266L3.20722 3.33804C3.6212 2.92674 4.07684 2.55601 4.80055 2.36923C5.23887 2.19747 5.99177 1.96031 7.20133 1.95845C8.45942 1.88052 8.87585 1.88052 12.0589 1.88052H12.0979C15.2928 1.88052 15.7005 1.88052 16.9695 1.95932ZM7.21567 2.41558C6.0392 2.41558 5.33332 2.64935 4.94117 2.80519C4.31372 2.96104 3.92157 3.27272 3.52941 3.66234C3.13725 4.12987 2.90196 4.51948 2.66666 5.06494C2.5098 5.53247 2.35294 6.15585 2.2745 7.32468C2.19607 8.57143 2.19607 8.96104 2.19607 12.1558C2.19607 15.3506 2.19607 15.7403 2.2745 16.987C2.2745 18.1558 2.5098 18.8571 2.66666 19.2468C2.82352 19.8701 3.13725 20.2597 3.52941 20.6493C4 21.039 4.39215 21.2727 4.94117 21.5065C5.41175 21.6623 6.0392 21.8182 7.21567 21.8961C8.47054 21.974 8.86272 21.974 12.0782 21.974C15.2936 21.974 15.6863 21.974 16.9412 21.8961C18.1176 21.8961 18.8235 21.6623 19.2157 21.5065C19.8431 21.3506 20.2353 21.039 20.6274 20.6493C21.0196 20.1818 21.2549 19.7922 21.4902 19.2468C21.647 18.7792 21.8039 18.1558 21.8823 16.987C21.9608 15.7403 21.9608 15.3506 21.9608 12.1558C21.9608 8.96104 21.9608 8.57143 21.8823 7.32468C21.8823 6.15585 21.647 5.45455 21.4902 5.06494C21.3333 4.44156 21.0196 4.05195 20.6274 3.66234C20.1569 3.27272 19.7647 3.03896 19.2157 2.80519C18.7451 2.64935 18.1176 2.49351 16.9412 2.41558C15.6863 2.33766 15.2941 2.33766 12.0786 2.33766C8.86306 2.33766 8.47055 2.33766 7.21567 2.41558ZM18.5882 4.36364C17.8039 4.36364 17.1765 4.98701 17.1765 5.76623C17.1765 6.54546 17.8039 7.16883 18.5882 7.16883C19.3725 7.16883 20 6.54546 20 5.76623C20 4.98701 19.2941 4.28571 18.5882 4.36364ZM12.0784 16.587C9.63269 16.587 7.62128 14.5929 7.62128 12.1558C7.62128 9.71875 9.63269 7.72468 12.0784 7.72468C14.5242 7.72468 16.5356 9.71875 16.5356 12.1558C16.5356 14.5929 14.5242 16.587 12.0784 16.587ZM17.8174 12.1558C17.8174 8.98255 15.2797 6.45714 12.0784 6.45714C8.95175 6.45714 6.33949 8.98629 6.33949 12.1558C6.33949 15.3291 8.87711 17.8545 12.0784 17.8545C15.2797 17.8545 17.8174 15.3291 17.8174 12.1558ZM8.07842 12.1558C8.07842 14.3377 9.88235 16.1299 12.0784 16.1299C14.2745 16.1299 16.0784 14.3377 16.0784 12.1558C16.0784 9.97402 14.2745 8.18182 12.0784 8.18182C9.88235 8.18182 8.07842 9.97402 8.07842 12.1558ZM18.2745 12.1558C18.2745 8.72727 15.5294 6 12.0784 6C8.70588 6 5.88235 8.72727 5.88235 12.1558C5.88235 15.5844 8.62744 18.3117 12.0784 18.3117C15.5294 18.3117 18.2745 15.5844 18.2745 12.1558Z" fill="#2C2C2E"/>
</svg>
