<svg width="178" height="71" viewBox="0 0 178 71" fill="none" xmlns="http://www.w3.org/2000/svg">
<g filter="url(#filter0_d_53_379)">
<path d="M55.3513 27.3224C54.49 27.6096 53.6765 27.8967 52.9109 28.136C51.5711 28.5668 50.2313 29.0454 48.9394 29.524C48.4609 29.7154 48.0302 30.1462 47.5996 30.4812C47.6474 30.5291 47.6474 30.5769 47.6953 30.6248H53.1023C52.9588 31.6299 52.576 32.6349 52.0018 33.5443C49.8964 33.2571 47.8389 32.97 45.7335 32.6828C45.0157 32.5871 44.92 32.2999 45.2071 31.6777C46.0206 30.1462 46.834 28.6146 47.5996 27.0831C47.8867 26.5566 48.2216 26.1737 48.7958 25.9823C49.6093 25.6951 50.3749 25.4558 51.1883 25.1687C51.8582 24.9293 52.5281 24.69 53.198 24.4986C53.4851 24.4029 53.7722 24.3072 54.1072 24.2114C53.5808 23.2542 52.9109 22.3927 52.1453 21.5791C51.0448 22.1056 49.8964 22.5842 48.7958 23.1106C48.2695 23.3499 47.7432 23.5892 47.2168 23.8764C46.3555 24.2593 45.877 25.0251 45.6378 25.8866C45.1114 28.0403 44.5851 30.1462 44.0587 32.2999C43.9152 32.9221 44.1066 33.3528 44.6808 33.5921C46.3555 34.3579 48.0302 35.1237 49.705 35.8416C50.5663 36.2245 51.4276 36.6074 52.2889 36.9903C52.3367 36.9903 52.3846 37.0381 52.4324 37.0381C53.3416 36.0809 54.0593 35.028 54.6335 33.8793C55.112 32.8264 55.447 31.7256 55.5905 30.5769C55.6384 30.194 55.6384 29.8111 55.6384 29.4761C55.5905 28.7582 55.5427 28.0403 55.3513 27.3224ZM37.0727 33.5443C36.7856 30.3855 36.4985 27.1788 36.2114 24.02C36.1635 23.4457 36.02 22.8713 35.7329 22.3927C35.4458 21.9141 35.1108 21.3877 34.8237 20.909C34.106 19.7604 33.3882 18.6596 32.6705 17.5588C32.6705 17.5109 32.6226 17.5109 32.5748 17.4631C31.2828 17.846 30.0866 18.3724 28.9861 18.9946C29.1296 19.0903 29.321 19.1861 29.4167 19.3296C30.2302 20.1433 30.9957 20.909 31.8092 21.7227C32.2398 22.2013 32.7183 22.632 33.149 23.1106C33.5318 23.5414 33.8189 24.1157 33.9624 24.6422C34.6323 27.5138 35.2544 30.3855 35.9243 33.2571C36.02 33.64 35.9243 33.9272 35.5893 34.2143C34.106 35.2673 32.6226 36.3681 31.0914 37.421C31.0436 37.4689 30.9479 37.5167 30.9 37.5646C29.8952 37.1338 28.9382 36.6074 28.1248 35.9852C29.7995 35.2194 31.4742 34.5015 33.149 33.7357C34.0581 33.305 34.2017 33.0178 33.9624 32.0127C33.4839 30.0983 32.9576 28.136 32.5269 26.2216C32.2877 25.1208 31.7135 24.2593 30.6608 23.7328C30.1345 23.4935 29.6081 23.2542 29.0818 23.0149C28.0291 22.5363 26.9764 22.0577 25.9237 21.5312C25.828 21.4834 25.7323 21.4834 25.6366 21.4834C25.3973 21.7227 25.1581 21.962 24.9667 22.2013C24.7274 22.4884 24.4882 22.7756 24.2489 23.1106C24.0575 23.3978 23.8661 23.685 23.6747 23.9721C24.6796 24.3072 25.6844 24.6422 26.6414 24.9772C27.5027 25.2644 28.3162 25.5515 29.1296 25.8387C29.7995 26.078 30.2302 26.4609 30.5173 27.0831C31.235 28.6146 32.0484 30.0983 32.8619 31.582C33.1968 32.2042 33.1011 32.4914 32.3355 32.5871C30.5173 32.8742 28.7468 33.1135 26.9285 33.3528C26.5457 33.4007 26.1629 33.4486 25.7801 33.4964C25.1581 32.5871 24.7753 31.582 24.6317 30.5291C26.45 30.5291 28.2683 30.5291 30.0866 30.5291C30.2302 30.5291 30.3259 30.4812 30.4694 30.4812C30.5173 30.4333 30.5173 30.3855 30.5651 30.3376C30.0388 30.0026 29.5603 29.524 28.9861 29.3325C27.6463 28.8539 26.3065 28.4232 24.9188 27.9446C24.1054 27.7053 23.2919 27.4181 22.4785 27.1309V27.1788C22.0957 27.9924 22 28.7104 22 29.4761C22 31.0555 22.3828 32.5392 23.0048 33.9272C23.0527 34.0229 23.1005 34.1186 23.1484 34.2143C23.579 35.0758 24.1532 35.9373 24.871 36.7031C25.0145 36.8467 25.1581 37.0381 25.3495 37.1817C26.1629 37.9953 27.1199 38.7611 28.1248 39.4312C29.2732 40.1491 30.5173 40.7713 31.857 41.202C32.0006 41.1542 32.192 41.0106 32.3355 40.8191C32.8619 40.0534 33.3882 39.2876 33.9624 38.5218C34.9673 37.1338 35.9243 35.7459 36.9291 34.3579C37.0727 34.2143 37.1205 33.8793 37.0727 33.5443ZM49.5136 39.2397C48.7001 38.6654 47.8389 38.0432 47.0254 37.4689C45.5421 36.4159 44.0109 35.3151 42.5275 34.2622C42.1447 33.975 42.0012 33.6879 42.1447 33.2571C42.7668 30.6248 43.341 27.9446 43.9152 25.2644C44.1544 24.2114 44.5851 23.3021 45.3985 22.5363C45.6378 22.297 45.877 22.0577 46.1641 21.8184C47.0733 20.9569 47.9345 20.0475 48.8915 19.0903C47.791 18.4681 46.6426 17.9417 45.3507 17.5588C45.3028 17.6066 45.3028 17.6545 45.255 17.7024C44.5851 18.8032 43.8673 19.904 43.1496 20.9569C42.9582 21.2441 42.7189 21.5791 42.5275 21.9141C42.049 22.632 41.8098 23.3978 41.7619 24.2114C41.4748 27.3224 41.1877 30.4812 40.9006 33.5921C40.8528 33.9272 40.9963 34.2622 41.1877 34.5494C42.0969 35.8895 43.006 37.2296 43.963 38.5218C43.963 38.5218 43.963 38.5218 44.0109 38.5697C44.6329 39.4312 45.3028 40.2927 45.9727 41.202C47.3125 40.7234 48.6044 40.1012 49.7528 39.3354C49.6093 39.3354 49.5614 39.2876 49.5136 39.2397ZM41.5705 41.9678C41.2834 41.0106 41.0442 40.0534 40.7571 39.0483C40.4221 37.8518 40.0872 36.6552 39.7522 35.4109C39.6565 35.028 39.5608 34.5972 39.5608 34.2143C39.8001 29.7154 40.0393 25.1687 40.3264 20.6697C40.3264 20.6219 40.3264 20.574 40.3264 20.574C40.4221 19.2818 40.47 17.9417 40.5657 16.6016C39.9436 16.5537 39.3694 16.5537 38.7953 16.5537C38.3168 16.5537 37.8861 16.5537 37.4555 16.6016V16.7452C37.5512 18.0374 37.599 19.3296 37.6947 20.574C37.8861 23.9721 38.0775 27.3702 38.2689 30.7205C38.3646 32.8264 38.6996 34.9801 37.8383 37.0381C37.599 37.6125 37.5033 38.2346 37.3119 38.809C37.2641 38.9047 37.2641 39.0004 37.2162 39.0961C36.9291 40.1491 36.642 41.202 36.3071 42.3028C37.1205 42.3985 37.934 42.4464 38.7953 42.4464C39.7522 42.4464 40.7092 42.3985 41.6184 42.255C41.6184 42.1592 41.5705 42.0635 41.5705 41.9678Z" fill="white"/>
<path d="M74.2823 19.1439H73.1788L69.4697 27.2934L66.0131 19.1439H64.9895L68.8847 28.45H70.0148L73.7372 20.2739L77.4464 28.45H78.5897L82.4716 19.1439H81.448L77.9914 27.2934L74.2823 19.1439Z" fill="white"/>
<path d="M93.863 19.1439H92.7596L89.0504 27.2934L85.5939 19.1439H84.5702L88.4655 28.45H89.5955L93.3179 20.2739L97.0271 28.45H98.1704L102.052 19.1439H101.029L97.5721 27.2934L93.863 19.1439Z" fill="white"/>
<path d="M114.782 24.2224C114.622 26.283 113.227 27.772 109.624 27.772C105.782 27.772 104.452 26.0836 104.452 23.797C104.452 21.5103 105.782 19.8219 109.624 19.8219C112.482 19.8219 113.958 20.7924 114.49 22.2415H115.566C114.995 20.3138 113.227 18.9844 109.624 18.9844C105.117 18.9844 103.482 21.0583 103.482 23.797C103.482 26.5489 105.117 28.6095 109.624 28.6095C114.131 28.6095 115.766 26.5489 115.766 23.797C115.766 23.6773 115.766 23.5577 115.739 23.438H109.358V24.2224H114.782Z" fill="white"/>
<path fill-rule="evenodd" clip-rule="evenodd" d="M104.812 20.3059C105.803 19.428 107.36 18.9072 109.624 18.9072C111.434 18.9072 112.792 19.2411 113.771 19.8237C114.752 20.4075 115.349 21.238 115.64 22.2196L115.67 22.3186H114.436L114.417 22.268C113.901 20.8621 112.466 19.899 109.624 19.899C107.712 19.899 106.441 20.3192 105.648 21.0101C104.857 21.6992 104.529 22.6687 104.529 23.7969C104.529 24.9251 104.857 25.8946 105.648 26.5838C106.441 27.2747 107.712 27.6948 109.624 27.6948C111.416 27.6948 112.646 27.3243 113.447 26.7088C114.224 26.1118 114.605 25.2771 114.698 24.2995H109.281V23.3609H115.801L115.814 23.4212C115.843 23.5492 115.843 23.676 115.843 23.7933V23.7969C115.843 25.1884 115.429 26.4153 114.436 27.293C113.444 28.1692 111.888 28.6866 109.624 28.6866C107.36 28.6866 105.803 28.1692 104.812 27.293C103.818 26.4153 103.405 25.1884 103.405 23.7969C103.405 22.4121 103.819 21.1852 104.812 20.3059ZM104.914 20.4214C103.963 21.2637 103.559 22.4431 103.559 23.7969C103.559 25.1574 103.963 26.3368 104.914 27.1774C105.867 28.0195 107.381 28.5324 109.624 28.5324C111.867 28.5324 113.381 28.0195 114.334 27.1774C115.285 26.3368 115.689 25.1574 115.689 23.7969C115.689 23.698 115.688 23.6057 115.675 23.5151H109.435V24.1452H114.865L114.859 24.2283C114.778 25.2755 114.381 26.1851 113.541 26.831C112.703 27.4751 111.434 27.8491 109.624 27.8491C107.693 27.8491 106.379 27.4251 105.547 26.7001C104.712 25.9734 104.375 24.9554 104.375 23.7969C104.375 22.6385 104.712 21.6205 105.547 20.8938C106.379 20.1688 107.693 19.7448 109.624 19.7448C112.466 19.7448 113.98 20.7007 114.543 22.1644H115.462C115.171 21.2615 114.605 20.4995 113.692 19.9563C112.744 19.3923 111.416 19.0615 109.624 19.0615C107.381 19.0615 105.867 19.5777 104.914 20.4214ZM64.8736 19.0668H66.0642L69.4722 27.1017L73.1292 19.0668H74.3319L77.9889 27.1017L81.3969 19.0668H82.5874L78.6411 28.5271H77.3967L73.7371 20.4603L70.0644 28.5271H68.8334L64.8736 19.0668ZM65.1054 19.221L68.9361 28.3729H69.9651L73.7373 20.0875L77.496 28.3729H78.5383L82.3559 19.221H81.499L77.9939 27.485L74.2326 19.221H73.2285L69.4672 27.485L65.9621 19.221H65.1054ZM84.4543 19.0668H85.6449L89.0529 27.1017L92.7099 19.0668H93.9126L97.5697 27.1017L100.978 19.0668H102.168L98.2218 28.5271H96.9774L93.3178 20.4603L89.6451 28.5271H88.4141L84.4543 19.0668ZM84.6861 19.221L88.5168 28.3729H89.5459L93.318 20.0875L97.0768 28.3729H98.119L101.937 19.221H101.08L97.5746 27.485L93.8134 19.221H92.8092L89.0479 27.485L85.5428 19.221H84.6861Z" fill="white"/>
<path d="M71.5837 36.0786H71.0047L69.1064 39.9484L67.3328 36.0786H66.7831L68.7839 40.4761H69.4216L71.2905 36.6796L73.1594 40.4761H73.8044L75.8053 36.0786H75.2556L73.4819 39.9484L71.5837 36.0786Z" fill="white"/>
<path d="M79.5416 35.9833C77.3941 35.9833 76.522 36.9508 76.522 38.2774C76.522 39.6039 77.3941 40.5641 79.5416 40.5641C81.198 40.5641 82.0994 39.9924 82.4219 39.1129H81.8796C81.5791 39.7432 80.8462 40.1536 79.5416 40.1536C77.8265 40.1536 77.0936 39.4354 77.0423 38.4533H82.5538C82.5612 38.402 82.5612 38.336 82.5612 38.2774C82.5612 36.9508 81.689 35.9833 79.5416 35.9833ZM79.5416 36.4011C81.2639 36.4011 81.9895 37.1194 82.0408 38.0941H77.0423C77.0936 37.1194 77.8265 36.4011 79.5416 36.4011Z" fill="white"/>
<path d="M87.218 35.9907C85.7741 35.9907 84.924 36.4817 84.5575 37.244V34.6128H84.0518V40.4761H84.5575V39.3108C84.924 40.073 85.7741 40.5641 87.218 40.5641C89.2482 40.5641 90.0983 39.6039 90.0983 38.2774C90.0983 36.9508 89.2482 35.9907 87.218 35.9907ZM87.0787 40.0877C85.2684 40.0877 84.5575 39.3181 84.5575 38.2774C84.5575 37.2366 85.2684 36.4671 87.0787 36.4671C88.889 36.4671 89.5926 37.2366 89.5926 38.2774C89.5926 39.3181 88.889 40.0877 87.0787 40.0877Z" fill="white"/>
<path d="M95.6256 34.6128H95.1199V40.4761H95.6256V34.6128Z" fill="white"/>
<path d="M99.9781 35.9907C97.9553 35.9907 97.1051 36.9508 97.1051 38.2774C97.1051 39.6039 97.9553 40.5641 99.9781 40.5641C101.429 40.5641 102.272 40.073 102.639 39.3108V40.4761H103.144V36.0786H102.639V37.244C102.272 36.4817 101.429 35.9907 99.9781 35.9907ZM100.125 40.0877C98.3144 40.0877 97.6108 39.3181 97.6108 38.2774C97.6108 37.2366 98.3144 36.4671 100.125 36.4671C101.935 36.4671 102.639 37.2366 102.639 38.2774C102.639 39.3181 101.935 40.0877 100.125 40.0877Z" fill="white"/>
<path d="M108.059 35.9907C106.615 35.9907 105.765 36.4817 105.398 37.244V34.6128H104.893V40.4761H105.398V39.3108C105.765 40.073 106.615 40.5641 108.059 40.5641C110.089 40.5641 110.939 39.6039 110.939 38.2774C110.939 36.9508 110.089 35.9907 108.059 35.9907ZM107.92 40.0877C106.109 40.0877 105.398 39.3181 105.398 38.2774C105.398 37.2366 106.109 36.4671 107.92 36.4671C109.73 36.4671 110.433 37.2366 110.433 38.2774C110.433 39.3181 109.73 40.0877 107.92 40.0877Z" fill="white"/>
<path d="M115.187 35.9907C113.039 35.9907 112.167 36.9508 112.167 38.2774C112.167 39.6039 113.039 40.5641 115.187 40.5641C117.334 40.5641 118.206 39.6039 118.206 38.2774C118.206 36.9508 117.334 35.9907 115.187 35.9907ZM115.187 40.0877C113.376 40.0877 112.673 39.3181 112.673 38.2774C112.673 37.2366 113.376 36.4671 115.187 36.4671C116.997 36.4671 117.701 37.2366 117.701 38.2774C117.701 39.3181 116.997 40.0877 115.187 40.0877Z" fill="white"/>
<path d="M120.203 38.6365C120.203 37.4931 120.972 36.4817 122.885 36.4817V35.9907C121.324 35.9907 120.503 36.6723 120.203 37.5738V36.0786H119.697V40.4761H120.203V38.6365Z" fill="white"/>
<path d="M126.724 35.9907C124.701 35.9907 123.851 36.9508 123.851 38.2774C123.851 39.6039 124.701 40.5641 126.724 40.5641C128.175 40.5641 129.018 40.073 129.384 39.3108V40.4761H129.89V36.0786H129.384V37.244C129.018 36.4817 128.175 35.9907 126.724 35.9907ZM126.87 40.0877C125.06 40.0877 124.356 39.3181 124.356 38.2774C124.356 37.2366 125.06 36.4671 126.87 36.4671C128.681 36.4671 129.384 37.2366 129.384 38.2774C129.384 39.3181 128.681 40.0877 126.87 40.0877Z" fill="white"/>
<path d="M132.723 34.9719V36.0786H131.25V36.5404H132.723V38.5119C132.723 39.8165 133.251 40.5641 135.142 40.5641C135.735 40.5641 136.182 40.5201 136.607 40.4175V39.9484C136.234 40.0364 135.809 40.0877 135.281 40.0877C133.639 40.0877 133.229 39.516 133.229 38.4972V36.5404H136.607V36.0786H133.229V34.8327L132.723 34.9719Z" fill="white"/>
<path d="M140.787 35.9907C138.64 35.9907 137.768 36.9508 137.768 38.2774C137.768 39.6039 138.64 40.5641 140.787 40.5641C142.935 40.5641 143.807 39.6039 143.807 38.2774C143.807 36.9508 142.935 35.9907 140.787 35.9907ZM140.787 40.0877C138.977 40.0877 138.273 39.3181 138.273 38.2774C138.273 37.2366 138.977 36.4671 140.787 36.4671C142.597 36.4671 143.301 37.2366 143.301 38.2774C143.301 39.3181 142.597 40.0877 140.787 40.0877Z" fill="white"/>
<path d="M145.803 38.6365C145.803 37.4931 146.573 36.4817 148.486 36.4817V35.9907C146.924 35.9907 146.104 36.6723 145.803 37.5738V36.0786H145.297V40.4761H145.803V38.6365Z" fill="white"/>
<path d="M149.939 36.0786H149.374L152.299 40.4761H152.511L151.537 41.9419H152.101L156 36.0786H155.436L152.687 40.1316L149.939 36.0786Z" fill="white"/>
</g>
<defs>
<filter id="filter0_d_53_379" x="0" y="0.553711" width="178" height="69.8926" filterUnits="userSpaceOnUse" color-interpolation-filters="sRGB">
<feFlood flood-opacity="0" result="BackgroundImageFix"/>
<feColorMatrix in="SourceAlpha" type="matrix" values="0 0 0 0 0 0 0 0 0 0 0 0 0 0 0 0 0 0 127 0" result="hardAlpha"/>
<feOffset dy="6"/>
<feGaussianBlur stdDeviation="11"/>
<feComposite in2="hardAlpha" operator="out"/>
<feColorMatrix type="matrix" values="0 0 0 0 0 0 0 0 0 0 0 0 0 0 0 0 0 0 0.25 0"/>
<feBlend mode="normal" in2="BackgroundImageFix" result="effect1_dropShadow_53_379"/>
<feBlend mode="normal" in="SourceGraphic" in2="effect1_dropShadow_53_379" result="shape"/>
</filter>
</defs>
</svg>
