<svg width="20" height="20" viewBox="0 0 20 20" fill="none" xmlns="http://www.w3.org/2000/svg">
<path d="M14.3291 8.21756C14.2453 7.53729 14.0363 7.00315 13.665 6.53002C13.1828 5.9208 12.5666 5.55599 11.6544 5.33958C11.0599 5.19534 10.8197 5.2119 10.6047 5.4083C10.4044 5.59231 10.3653 5.9612 10.5184 6.20008C10.626 6.37346 10.7502 6.43557 11.0955 6.50336C11.5554 6.58797 11.8733 6.69779 12.1624 6.8631C12.776 7.21742 13.0618 7.77188 13.0924 8.66952C13.1067 9.09099 13.1431 9.22057 13.2903 9.37006C13.5631 9.64331 14.0487 9.59016 14.2547 9.26317C14.3303 9.13992 14.3418 9.08628 14.3498 8.80008C14.355 8.6229 14.3474 8.35917 14.3291 8.21756Z" fill="#2C2C2E"/>
<path d="M16.7325 8.98452C16.6113 6.90038 15.7961 5.22359 14.3372 4.04383C13.5152 3.38092 12.5216 2.92509 11.4325 2.70341C11.0336 2.62413 10.299 2.55986 10.173 2.59662C10.0541 2.63066 9.8859 2.75942 9.81094 2.87585C9.73166 3.00212 9.7138 3.28404 9.78142 3.44712C9.89057 3.71973 10.0936 3.81604 10.6623 3.86579C11.539 3.94249 12.4432 4.25049 13.1264 4.70646C13.9064 5.22562 14.5264 5.93572 14.9275 6.77014C15.2741 7.48708 15.4872 8.52028 15.4813 9.44549C15.4794 9.78012 15.531 9.9691 15.6656 10.1073C15.8687 10.3197 16.1648 10.3662 16.4261 10.225C16.7157 10.0728 16.7835 9.8054 16.7325 8.98452Z" fill="#2C2C2E"/>
<path d="M18.3166 16.0653C18.2804 15.9639 18.1959 15.8075 18.1355 15.7177C17.755 15.1675 15.7107 13.6353 14.69 13.1342C14.1072 12.8475 13.6754 12.7519 13.3553 12.8417C13.011 12.9344 12.8298 13.0879 12.2531 13.7743C12.0206 14.0495 11.782 14.3073 11.7186 14.3478C11.5616 14.4521 11.2536 14.5361 11.0362 14.5361C10.5319 14.5331 9.61689 14.2203 8.9133 13.8091C8.36674 13.4905 7.6662 12.9199 7.12867 12.3551C6.4945 11.6919 6.06274 11.1068 5.72148 10.4464C5.28063 9.59781 5.1689 9.07934 5.35307 8.69991C5.39838 8.60434 5.45878 8.503 5.48592 8.47109C5.51312 8.44217 5.79699 8.21913 6.111 7.97583C6.72705 7.50664 6.82669 7.39948 6.94143 7.07798C7.08637 6.66957 7.04714 6.25251 6.82368 5.83255C6.65154 5.51394 6.20161 4.81883 5.8755 4.3699C5.44368 3.77907 4.36866 2.51627 4.15423 2.34534C3.76772 2.04414 3.27254 1.99198 2.72592 2.19476C2.14921 2.4091 1.06812 3.24323 0.606099 3.82541C0.18938 4.35253 0.0293882 4.72614 0.00520579 5.21852C-0.0159173 5.62399 0.0203058 5.79199 0.243768 6.31045C1.99217 10.3769 4.60115 13.6237 8.18556 16.2015C10.0578 17.5482 11.9994 18.5736 14.0136 19.2745C15.1882 19.6829 15.6985 19.7031 16.2995 19.3672C16.5531 19.2223 17.1812 18.6054 17.5315 18.1565C18.1113 17.4092 18.3257 17.0646 18.3861 16.7894C18.4284 16.6012 18.3951 16.2739 18.3166 16.0653Z" fill="#2C2C2E"/>
<path d="M19.1792 9.463C19.1357 8.28408 18.9372 7.31709 18.5233 6.23898C18.1147 5.17847 17.7012 4.48644 16.9201 3.55043C16.1817 2.67282 15.6082 2.17172 14.6986 1.61393C13.4295 0.836764 11.8851 0.322465 10.1543 0.106174C9.56402 0.0305805 9.43049 0.0359804 9.24941 0.156809C8.89849 0.385702 8.90317 0.956616 9.25519 1.18208C9.37172 1.2538 9.47512 1.27993 9.94726 1.34173C10.672 1.43931 11.1381 1.53127 11.6911 1.68215C13.8596 2.27495 15.5273 3.48664 16.6421 5.28535C17.5751 6.78459 17.9624 8.28394 17.9074 10.1989C17.8883 10.8462 17.9022 10.9602 18.0012 11.1157C18.1907 11.4056 18.6904 11.463 18.9468 11.2224C19.1063 11.0758 19.1364 10.9657 19.1678 10.4116C19.1829 10.1226 19.1861 9.6959 19.1792 9.463Z" fill="#2C2C2E"/>
</svg>
