<svg width="22" height="23" viewBox="0 0 22 23" fill="none" xmlns="http://www.w3.org/2000/svg">
<path fill-rule="evenodd" clip-rule="evenodd" d="M11.0484 21.9111H11.0439C9.21099 21.9105 7.40999 21.4506 5.81039 20.5781L0.00476074 22.101L1.55844 16.426C0.600056 14.7651 0.0957578 12.8811 0.0965797 10.9509C0.0989821 4.91264 5.01189 0 11.0483 0C13.978 0.00126442 16.7277 1.14178 18.7954 3.21187C20.8631 5.28185 22.0012 8.03337 22 10.9596C21.9976 16.9965 17.0866 21.9086 11.0484 21.9111ZM6.07936 18.5957L6.41174 18.793C7.80931 19.6223 9.41134 20.0611 11.0447 20.0618H11.0484C16.0655 20.0618 20.1489 15.9783 20.1509 10.9592C20.1518 8.52692 19.2059 6.23998 17.4873 4.5194C15.7687 2.79883 13.4833 1.85082 11.052 1.84997C6.03105 1.84997 1.94762 5.93304 1.94563 10.9518C1.94492 12.6718 2.42617 14.3468 3.33735 15.796L3.55378 16.1404L2.63422 19.4994L6.07936 18.5957ZM16.191 13.3172C16.3818 13.4095 16.5107 13.4718 16.5658 13.5636C16.6341 13.6777 16.6341 14.2256 16.4062 14.8649C16.1781 15.5041 15.0849 16.0875 14.5591 16.166C14.0877 16.2365 13.4911 16.2659 12.8356 16.0576C12.4381 15.9315 11.9284 15.7631 11.2756 15.4812C8.71021 14.3734 6.97656 11.8871 6.6489 11.4171C6.62594 11.3842 6.60989 11.3612 6.60093 11.3492L6.59873 11.3463C6.45392 11.1531 5.48358 9.8584 5.48358 8.51848C5.48358 7.258 6.10274 6.59732 6.38774 6.29321C6.40727 6.27238 6.42523 6.25321 6.44131 6.23565C6.69213 5.96169 6.98861 5.8932 7.17103 5.8932C7.35343 5.8932 7.53606 5.89488 7.69549 5.90289C7.71516 5.90388 7.73563 5.90376 7.75678 5.90363C7.91625 5.9027 8.11505 5.90153 8.31118 6.37263C8.38662 6.55392 8.49702 6.82268 8.61345 7.10614C8.84892 7.6794 9.1091 8.31281 9.15487 8.40447C9.2233 8.54145 9.26889 8.70119 9.17768 8.8839C9.16399 8.91129 9.15132 8.93715 9.13923 8.96185C9.07072 9.10171 9.02032 9.2046 8.90405 9.34036C8.85832 9.39374 8.81107 9.45129 8.76381 9.50884C8.66967 9.62349 8.57554 9.73813 8.49357 9.81979C8.35658 9.95624 8.21397 10.1043 8.3736 10.3782C8.53322 10.6522 9.08241 11.5483 9.8959 12.2739C10.7704 13.0539 11.5304 13.3836 11.9156 13.5507C11.9909 13.5833 12.0518 13.6097 12.0965 13.6321C12.37 13.7691 12.5297 13.7462 12.6893 13.5636C12.849 13.381 13.3734 12.7645 13.5558 12.4906C13.7382 12.2168 13.9207 12.2624 14.1714 12.3537C14.4223 12.4451 15.7677 13.107 16.0413 13.244C16.0948 13.2707 16.1447 13.2949 16.191 13.3172Z" fill="#2C2C2E"/>
</svg>
