<svg width="34" height="33" viewBox="0 0 34 33" fill="none" xmlns="http://www.w3.org/2000/svg">
<path d="M13.8694 20.7084C14.0129 20.9721 14.193 21.214 14.4044 21.4268C14.5419 21.5658 14.6926 21.691 14.8544 21.8006C14.5248 21.437 14.1964 21.0729 13.8694 20.7084ZM11.7054 4.84973C12.1364 5.22947 12.5666 5.6109 12.9959 5.99403C12.8761 5.7917 12.7318 5.60507 12.5662 5.43841C12.3181 5.19033 12.0262 4.9907 11.7054 4.84973ZM5.97525 12.0474C6.07763 12.1499 6.18783 12.2443 6.30486 12.3296C6.05723 12.055 5.80791 11.7812 5.5569 11.5083C5.67444 11.704 5.81489 11.885 5.97525 12.0474ZM31.4033 20.8941L28.5648 18.3575L26.3286 16.3576C22.1637 12.6348 17.9996 8.91157 13.8364 5.18794C13.3674 4.76412 12.8983 4.34497 12.4292 3.93048C11.612 3.19813 10.7939 2.46748 9.97492 1.73852C7.9098 -0.10253 4.95093 0.140316 2.79706 2.26998C0.643197 4.39964 0.388383 7.48289 2.26588 9.5706C3.06624 10.4589 3.86702 11.3489 4.66823 12.2406C4.93445 12.5381 5.20236 12.8348 5.47196 13.1306C7.97361 15.9075 10.4782 18.6826 12.9858 21.456L14.0443 22.6283C14.9588 23.6455 15.8736 24.6584 16.7889 25.667L19.0987 28.2252C19.9388 29.1576 20.7785 30.09 21.6177 31.0224C22.5761 32.084 23.7652 32.5481 25.1762 32.496C29.0618 32.3688 33.0019 28.3002 32.9981 24.2316C33.0437 22.9729 32.4593 21.8387 31.4033 20.8941ZM17.026 24.1998L16.4302 23.5425L15.7836 22.8279L15.4033 22.4122L14.8519 21.8006C14.5223 21.437 14.1939 21.0729 13.8668 20.7084C13.5524 20.3613 13.2406 20.0142 12.9275 19.6671L12.3012 18.9716L11.0652 17.5997L9.12555 15.4472C8.8813 15.1768 8.63705 14.9064 8.3928 14.636C8.21363 14.4377 8.03446 14.2398 7.85529 14.0423L7.25185 13.3747L6.30359 12.3296C6.05596 12.055 5.80664 11.7812 5.55563 11.5083C5.23617 11.1557 4.91543 10.8039 4.59343 10.453L3.97478 9.77784C3.81167 9.5973 3.64728 9.4176 3.48163 9.23875C2.25574 7.90501 1.71823 6.50388 2.47633 4.78871C3.28387 2.96292 4.64033 1.73725 6.69151 1.72962C7.51427 1.72962 8.52591 2.04621 9.13442 2.58148C9.45896 2.86629 9.78265 3.15236 10.1055 3.43971C10.3278 3.63466 10.5496 3.83046 10.7711 4.02711L11.7054 4.85355C12.1364 5.23329 12.5666 5.61472 12.9959 5.99785L13.9087 6.80775L15.094 7.86305L15.9079 8.58777L18.1023 10.5483L19.7313 12.0067L20.5655 12.753C21.349 13.454 22.1316 14.1554 22.9133 14.8573L24.105 15.9265L24.7845 16.5356L25.6719 17.3315L27.6787 19.1267L28.1528 19.5514C28.2796 19.6608 28.3709 19.7955 28.5737 20.0257C28.3848 20.0714 28.201 20.1172 28.0223 20.1642C24.0086 21.2183 22.4975 22.7618 20.6999 27.5577C20.6403 27.7179 20.5794 27.8832 20.5186 28.051L19.8404 27.3021C19.1456 26.5393 18.4573 25.7802 17.7752 25.025C17.5234 24.7503 17.2736 24.4753 17.026 24.1998ZM25.038 31.3199C23.2632 31.3199 22.1159 30.3498 21.9118 28.7299C21.8897 28.5528 21.8787 28.3745 21.8789 28.1959C21.8789 28.1222 21.8789 28.0485 21.8789 27.9734C22.0196 24.8114 25.5096 21.3836 28.6637 21.3111C28.8538 21.3065 29.044 21.315 29.2329 21.3365C30.8708 21.526 31.8952 22.7148 31.8952 24.4808C31.8749 27.7001 28.2606 31.3046 25.038 31.3199Z" fill="#8E8E93" stroke="#8E8E93" stroke-width="0.2"/>
<path d="M21.5159 28.7759C20.0835 28.7759 18.7994 28.2673 17.8664 27.3355C17.0528 26.5071 16.5545 25.4189 16.4581 24.2601C16.254 22.2043 17.13 19.977 18.7994 18.3026C20.0341 17.0643 21.5882 16.2469 23.1664 16.0015C23.7243 15.9142 24.2913 15.9026 24.8523 15.9672C25.9662 16.0849 27.0074 16.5779 27.8059 17.3656C28.8035 18.3649 29.3105 19.7812 29.2332 21.3348L28.0923 21.2788C28.1519 20.0456 27.7628 18.9434 26.9971 18.1742C26.3791 17.5687 25.5749 17.1909 24.7154 17.1025C24.2573 17.0496 23.7942 17.0594 23.3388 17.1317C21.9951 17.3339 20.6704 18.0407 19.6056 19.1137C18.1757 20.5427 17.4228 22.4192 17.5939 24.1431C17.6656 25.0384 18.0472 25.8803 18.6727 26.5231C19.456 27.3075 20.5741 27.6965 21.8417 27.6177L21.9127 28.7619C21.7758 28.7682 21.6452 28.7759 21.5159 28.7759Z" fill="#8E8E93" stroke="#8E8E93" stroke-width="0.2"/>
<path d="M14.8541 21.8011C14.8135 21.7744 14.7742 21.7452 14.7349 21.7159C14.6956 21.6867 14.6437 21.6448 14.5993 21.6079C14.5549 21.571 14.5422 21.5583 14.5144 21.5329C14.4865 21.5074 14.4396 21.463 14.4041 21.4274C14.3686 21.3918 14.328 21.3485 14.2925 21.3078C14.257 21.2672 14.2507 21.2621 14.2317 21.2379C14.1759 21.1731 14.1239 21.1108 14.0745 21.0358L14.0225 20.962C14.0098 20.943 13.9972 20.9239 13.9858 20.9048C13.9452 20.8413 13.9059 20.7777 13.8691 20.7091C13.6792 20.3563 13.5505 19.9737 13.4889 19.5776C13.248 18.0278 13.9135 16.2441 15.2331 14.9181C16.7302 13.4179 18.7558 12.7797 20.3974 13.2934C20.8966 13.4444 21.3512 13.7164 21.7208 14.0854C22.0035 14.3702 22.7514 14.477 22.9123 14.8482L23.4371 14.6219C23.2223 14.1186 22.9133 13.6611 22.527 13.2743C22.0273 12.7724 21.4115 12.4025 20.7346 12.1975C20.4078 12.0959 20.0713 12.029 19.7306 11.9979C17.9243 11.825 15.9341 12.5954 14.4269 14.107C13.0655 15.4712 12.2922 17.2739 12.3036 18.9648C12.3015 19.2274 12.3205 19.4897 12.3607 19.7492C12.4512 20.35 12.6607 20.9267 12.9767 21.4452C13.15 21.7297 13.3564 21.9926 13.5915 22.2283C13.7303 22.3681 13.8785 22.4981 14.0352 22.6173C14.5115 22.9754 15.0553 23.2327 15.6337 23.3738L15.7718 22.8182L14.8541 21.8011Z" fill="#8E8E93" stroke="#8E8E93" stroke-width="0.2"/>
<path d="M18.6278 10.3245L18.1017 10.5445L17.8697 10.2661C17.7265 9.92153 17.2588 9.81982 16.9989 9.55919C16.6617 9.22229 16.2206 9.27314 15.7465 9.1333C15.1861 8.97383 14.5965 8.94642 14.0238 9.0532C12.924 9.26295 11.9151 9.80662 11.1336 10.6106C10.3324 11.3934 9.79069 12.4045 9.58205 13.5067C9.47142 14.095 9.50228 14.7012 9.67205 15.2751C9.8153 15.7366 10.1614 16.0557 10.3781 16.4625C10.6481 16.9711 10.7242 17.4555 11.0677 17.5991L10.8484 18.1267C10.371 17.9285 9.93718 17.6377 9.57191 17.2711C9.11194 16.81 8.77235 16.2424 8.58317 15.6184C8.48519 15.2995 8.42228 14.9708 8.39556 14.6382C8.37882 14.4437 8.37416 14.2484 8.38162 14.0534C8.38957 13.8057 8.41499 13.5588 8.45767 13.3147C8.48176 13.1749 8.51091 13.0363 8.54514 12.8977C8.85093 11.7227 9.46862 10.6529 10.3325 9.80202C11.2786 8.83207 12.499 8.17703 13.8286 7.92553C14.2469 7.85235 14.6725 7.83015 15.0962 7.85942C15.4274 7.88249 15.7551 7.94175 16.0735 8.03614C16.7171 8.22275 17.3032 8.56956 17.7772 9.0443C18.1418 9.41087 18.4309 9.8459 18.6278 10.3245Z" fill="#8E8E93" stroke="#8E8E93" stroke-width="0.2"/>
<path d="M8.92021 12.8472L9.11796 13.9736C8.87466 14.0173 8.62852 14.0432 8.38147 14.0511C8.38943 13.8034 8.41484 13.5566 8.45753 13.3125C8.48161 13.1726 8.51077 13.0341 8.54499 12.8955C8.66922 12.884 8.79471 12.8688 8.92021 12.8472Z" fill="#8E8E93" stroke="#8E8E93" stroke-width="0.2"/>
<path d="M13.9078 6.80364H14.4783V6.74389L14.4656 6.68541C14.3542 6.15017 14.1388 5.64216 13.8318 5.19032C13.6949 4.99084 13.5405 4.80405 13.3704 4.6322C13.0919 4.35292 12.7731 4.11721 12.4247 3.93297C11.9278 3.67188 11.3848 3.51038 10.8263 3.45749H10.7958C10.5654 3.43586 10.3337 3.43077 10.1025 3.44224C8.62314 3.50707 7.1058 4.20504 5.91931 5.39246C4.67197 6.64346 3.97478 8.23644 3.96844 9.77857C3.96727 10.0184 3.98337 10.2581 4.01661 10.4956V10.5388C4.10135 11.1459 4.31769 11.727 4.65042 12.2411C4.79822 12.4645 4.96809 12.6724 5.15747 12.8616C5.25211 12.9578 5.35243 13.0482 5.4579 13.1323C5.94168 13.5224 6.50723 13.7975 7.11214 13.9371L7.17679 13.9524C7.39634 14.0009 7.61923 14.0328 7.84356 14.0477L7.24017 13.3803L6.29199 12.3352C6.17498 12.2499 6.06478 12.1555 5.96241 12.053C5.80206 11.8907 5.66163 11.7097 5.5441 11.5139C5.34549 11.1755 5.21258 10.8023 5.1524 10.4142L5.14606 10.3723C4.93691 8.98526 5.54029 7.38846 6.72045 6.20485C7.86131 5.06064 9.34569 4.46693 10.702 4.60296H10.7185C11.0551 4.63635 11.3844 4.72214 11.6946 4.85723C12.0153 4.99781 12.3072 5.19698 12.5553 5.44459C12.7235 5.60834 12.8709 5.7924 12.9939 5.99253L13.9078 6.80364Z" fill="#8E8E93" stroke="#8E8E93" stroke-width="0.2"/>
</svg>
