<svg width="34" height="29" viewBox="0 0 34 29" fill="none" xmlns="http://www.w3.org/2000/svg">
<path d="M33 16.7298C32.35 20.0344 31.7821 23.0836 31.1087 26.114C31.0302 26.464 30.406 26.8846 29.9505 26.9739C26.7428 27.6043 23.5234 28.1911 20.29 28.7051C19.7829 28.7851 19.0018 28.5763 18.6587 28.2471C12.9133 22.7187 7.19828 17.1657 1.51375 11.5881C0.485521 10.5838 1.06287 9.26487 2.69188 8.91696C4.19206 8.59709 5.71098 8.34577 7.22287 8.06744C8.84953 7.76835 9.3168 7.33424 9.60958 5.85018C9.85551 4.60394 9.99721 3.33174 10.4012 2.12809C10.6132 1.49562 11.1718 0.845503 11.7796 0.453976C12.5467 -0.038287 13.1486 0.610794 13.7119 1.0584C19.8462 5.93673 25.98 10.8154 32.1135 15.6944C32.5163 16.0164 32.7833 16.4712 33 16.7298ZM18.7559 26.9708C19.0381 25.3465 20.1202 24.7494 21.549 24.4897C22.9438 24.2353 24.328 23.9154 25.7357 23.7316C26.7803 23.5956 27.2581 23.1241 27.3951 22.2423C27.5614 21.2038 27.7816 20.1653 27.9807 19.1268C28.2594 17.6593 28.6622 16.2729 31.0091 15.9914C30.4587 15.5906 30.1484 15.3818 29.8579 15.1513C24.2811 10.7202 18.7059 6.28913 13.1323 1.85807C12.0876 1.02724 11.6742 1.14045 11.3756 2.40122C11.0641 3.74196 10.8076 5.09205 10.5476 6.44214C10.283 7.81924 9.37653 8.62306 7.8459 8.89827C6.29536 9.18179 4.73545 9.43415 3.19662 9.76544C1.90841 10.0417 1.78544 10.4748 2.64503 11.3108C5.50018 14.0899 8.35572 16.868 11.2116 19.645C13.6639 22.0232 16.115 24.4035 18.7559 26.9708ZM19.8954 27.8598L26.9595 26.5938C30.0582 26.0392 30.057 26.0392 30.6449 23.2248C30.6672 23.1209 30.7035 23.0171 30.7234 22.9132C31.1063 20.9224 31.4881 18.9315 31.8746 16.9136C29.9469 16.9583 29.448 17.3124 29.1272 18.7996C28.859 20.0407 28.6259 21.2921 28.3741 22.5311C28.1001 23.8874 27.6399 24.3142 26.1081 24.6081C24.5997 24.8958 23.0749 25.1274 21.5794 25.4597C20.0839 25.792 19.7326 26.3165 19.8954 27.8598Z" fill="#8E8E93" stroke="#8E8E93" stroke-width="0.2"/>
<path d="M12.141 9.16669C12.4166 9.36116 12.671 9.51284 12.8891 9.69564C16.5078 12.7469 20.1179 15.8046 23.7194 18.8688C23.9762 19.0885 23.9856 19.5066 24.1111 19.8334C23.7464 19.7264 23.2797 19.704 23.0334 19.4989C19.3694 16.4399 15.7253 13.3637 12.1011 10.2703C11.8666 10.0671 11.7693 9.73454 11.6673 9.44769C11.6509 9.40102 11.9475 9.27851 12.141 9.16669Z" fill="#8E8E93" stroke="#8E8E93" stroke-width="0.2"/>
</svg>
