<svg width="26" height="25" viewBox="0 0 26 25" fill="none" xmlns="http://www.w3.org/2000/svg">
<path d="M24.1399 16.385L22.0548 14.5976C22.1059 14.4924 22.1571 14.388 22.2093 14.2828C22.6538 14.4402 23.1485 14.5231 23.5362 14.7708C24.0944 15.1313 24.592 15.5923 25.0801 16.0469C25.2697 16.2238 25.3645 16.4986 25.5 16.7296C25.264 16.8581 25.0422 17.0546 24.7901 17.1021C21.6453 17.7178 18.4958 18.3129 15.3482 18.9118C14.2459 19.1214 13.1294 19.2741 12.0451 19.5508C11.4063 19.7138 11.0423 19.5331 10.6518 19.0655C8.86051 16.9233 6.94406 14.8696 5.26552 12.6445C4.31772 11.3871 3.29979 11.2688 1.90274 11.7131C1.98339 11.8713 2.07623 12.0233 2.18045 12.1676C5.14073 15.6529 8.10827 19.1329 11.0831 22.6076C11.2935 22.8526 11.7276 23.1227 12.0006 23.0733C15.9728 22.358 19.9355 21.5905 24.1105 20.7951L22.0187 18.9426C22.3277 18.8597 22.6405 18.679 22.7533 18.7619C23.6859 19.4446 24.5816 20.1767 25.4877 20.8929C25.2403 21.1081 25.0214 21.4601 24.7399 21.5179C22.3855 22.0013 20.0198 22.4297 17.6579 22.8768C15.8003 23.2288 13.9378 23.5558 12.0896 23.9516C11.4328 24.0922 11.0385 23.9292 10.6149 23.4254C7.4246 19.6355 4.1983 15.8746 1.00044 12.0912C0.774863 11.8249 0.682927 11.4514 0.526541 11.1272C0.879121 11.0229 1.22506 10.8851 1.58523 10.8217C2.14063 10.7286 2.70457 10.6811 3.45144 10.5926C2.51786 9.49451 1.69043 8.54355 0.892389 7.56931C0.70283 7.34298 0.633641 7.02911 0.513271 6.75528C0.797609 6.64817 1.06678 6.49356 1.3587 6.44419C1.98046 6.33988 2.61264 6.28865 3.45238 6.19085C2.53776 5.1123 1.71886 4.16414 0.926508 3.19456C0.736949 2.96451 0.642169 2.6618 0.5 2.39263C0.803295 2.26596 1.09806 2.05733 1.41178 2.02007C4.79162 1.65776 8.17335 1.30383 11.5598 1.00299C12.0257 0.97727 12.4853 1.11822 12.8536 1.39976C16.9291 4.76955 20.9834 8.16386 25.0166 11.5827C25.2337 11.769 25.3398 12.0773 25.4981 12.3278C25.228 12.4563 24.9711 12.6491 24.6868 12.7004C20.4719 13.5209 16.2514 14.3126 12.0385 15.1443C11.4158 15.2673 11.0385 15.1211 10.6414 14.6442C8.87282 12.5308 6.97723 10.5013 5.31101 8.30418C4.35563 7.04121 3.33107 6.82048 1.84682 7.33833C2.1122 7.66525 2.35484 7.9782 2.61169 8.2809C5.43138 11.5995 8.24444 14.9143 11.0888 18.2123C11.3096 18.4676 11.7901 18.7153 12.0925 18.6613C16.0306 17.9478 19.962 17.1878 24.1399 16.385ZM24.0082 11.9934C23.8774 11.8072 23.8376 11.714 23.7693 11.66C19.9971 8.48674 16.2287 5.30789 12.4327 2.15978C12.1617 1.93532 11.6745 1.85056 11.2954 1.88037C9.06144 2.06664 6.83127 2.30136 4.60111 2.53234C3.70639 2.62548 2.81452 2.73724 1.84398 2.84994C1.91245 2.98152 1.98872 3.10902 2.0724 3.23181C5.09018 6.78508 8.12217 10.3262 11.1153 13.8991C11.5134 14.375 11.9105 14.3126 12.3835 14.2223C14.8357 13.7559 17.2874 13.2881 19.7384 12.8187C21.142 12.5504 22.5429 12.2775 24.0082 11.9934Z" fill="#8E8E93" stroke="#8E8E93" stroke-width="0.2"/>
</svg>
