<svg width="34" height="33" viewBox="0 0 34 33" fill="none" xmlns="http://www.w3.org/2000/svg">
<path d="M13.8694 20.7083C14.0129 20.972 14.193 21.2138 14.4044 21.4267C14.5419 21.5656 14.6926 21.6908 14.8544 21.8005C14.5248 21.4368 14.1964 21.0728 13.8694 20.7083ZM11.7054 4.84961C12.1364 5.22935 12.5666 5.61078 12.9959 5.99391C12.8761 5.79158 12.7318 5.60495 12.5662 5.43829C12.3181 5.19021 12.0262 4.99058 11.7054 4.84961ZM5.97525 12.0472C6.07763 12.1498 6.18783 12.2442 6.30486 12.3295C6.05723 12.0549 5.80791 11.7811 5.5569 11.5082C5.67444 11.7039 5.81489 11.8849 5.97525 12.0472ZM31.4033 20.8939L28.5648 18.3574L26.3286 16.3574C22.1637 12.6346 17.9996 8.91144 13.8364 5.18782C13.3674 4.764 12.8983 4.34485 12.4292 3.93036C11.612 3.19801 10.7939 2.46735 9.97492 1.73839C7.9098 -0.102653 4.95093 0.140194 2.79706 2.26986C0.643197 4.39952 0.388383 7.48277 2.26588 9.57047C3.06624 10.4588 3.86702 11.3488 4.66823 12.2405C4.93445 12.538 5.20236 12.8347 5.47196 13.1305C7.97361 15.9073 10.4782 18.6825 12.9858 21.4559L14.0443 22.6282C14.9588 23.6453 15.8736 24.6582 16.7889 25.6669L19.0987 28.2251C19.9388 29.1575 20.7785 30.0898 21.6177 31.0222C22.5761 32.0839 23.7652 32.548 25.1762 32.4958C29.0618 32.3687 33.0019 28.3001 32.9981 24.2315C33.0437 22.9727 32.4593 21.8386 31.4033 20.8939ZM17.026 24.1997L16.4302 23.5423L15.7836 22.8278L15.4033 22.412L14.8519 21.8005C14.5223 21.4368 14.1939 21.0728 13.8668 20.7083C13.5524 20.3612 13.2406 20.0141 12.9275 19.667L12.3012 18.9715L11.0652 17.5996L9.12555 15.4471C8.8813 15.1767 8.63705 14.9063 8.3928 14.6359C8.21363 14.4376 8.03446 14.2396 7.85529 14.0421L7.25185 13.3746L6.30359 12.3295C6.05596 12.0549 5.80664 11.7811 5.55563 11.5082C5.23617 11.1555 4.91543 10.8038 4.59343 10.4529L3.97478 9.77772C3.81167 9.59717 3.64728 9.41748 3.48163 9.23863C2.25574 7.90489 1.71823 6.50376 2.47633 4.78858C3.28387 2.96279 4.64033 1.73712 6.69151 1.7295C7.51427 1.7295 8.52591 2.04608 9.13442 2.58136C9.45896 2.86616 9.78265 3.15224 10.1055 3.43958C10.3278 3.63454 10.5496 3.83034 10.7711 4.02699L11.7054 4.85343C12.1364 5.23316 12.5666 5.6146 12.9959 5.99772L13.9087 6.80763L15.094 7.86293L15.9079 8.58765L18.1023 10.5482L19.7313 12.0066L20.5655 12.7529C21.349 13.4539 22.1316 14.1553 22.9133 14.8571L24.105 15.9264L24.7845 16.5354L25.6719 17.3314L27.6787 19.1266L28.1528 19.5513C28.2796 19.6606 28.3709 19.7954 28.5737 20.0255C28.3848 20.0713 28.201 20.1171 28.0223 20.1641C24.0086 21.2181 22.4975 22.7617 20.6999 27.5576C20.6403 27.7178 20.5794 27.883 20.5186 28.0509L19.8404 27.302C19.1456 26.5391 18.4573 25.7801 17.7752 25.0248C17.5234 24.7502 17.2736 24.4752 17.026 24.1997ZM25.038 31.3198C23.2632 31.3198 22.1159 30.3496 21.9118 28.7298C21.8897 28.5527 21.8787 28.3743 21.8789 28.1958C21.8789 28.1221 21.8789 28.0483 21.8789 27.9733C22.0196 24.8112 25.5096 21.3834 28.6637 21.311C28.8538 21.3064 29.044 21.3149 29.2329 21.3364C30.8708 21.5258 31.8952 22.7146 31.8952 24.4807C31.8749 27.7 28.2606 31.3045 25.038 31.3198Z" fill="#8E8E93" stroke="#8E8E93" stroke-width="0.2"/>
</svg>
