<svg width="34" height="29" viewBox="0 0 34 29" fill="none" xmlns="http://www.w3.org/2000/svg">
<path d="M33.0002 16.8687C32.3503 20.1733 31.7823 23.2224 31.1089 26.2528C31.0305 26.6028 30.4063 27.0234 29.9507 27.1128C26.743 27.7431 23.5237 28.3299 20.2903 28.844C19.7832 28.9239 19.0021 28.7152 18.6589 28.386C12.9135 22.8575 7.19852 17.3045 1.51399 11.7269C0.485765 10.7227 1.06312 9.40372 2.69212 9.05582C4.1923 8.73595 5.71122 8.48463 7.22312 8.2063C8.84978 7.9072 9.31705 7.4731 9.60982 5.98904C9.85575 4.7428 9.99746 3.4706 10.4015 2.26694C10.6135 1.63448 11.1721 0.984358 11.7799 0.592831C12.5469 0.100568 13.1489 0.749649 13.7122 1.19726C19.8464 6.07558 25.9803 10.9543 32.1137 15.8333C32.5166 16.1552 32.7836 16.6101 33.0002 16.8687ZM18.7561 27.1096C19.0384 25.4854 20.1205 24.8882 21.5492 24.6286C22.944 24.3741 24.3282 24.0543 25.7359 23.8705C26.7805 23.7344 27.2583 23.2629 27.3954 22.3812C27.5616 21.3427 27.7818 20.3041 27.9809 19.2656C28.2596 17.7982 28.6625 16.4117 31.0094 16.1303C30.459 15.7294 30.1486 15.5207 29.8582 15.2901C24.2814 10.8591 18.7062 6.42799 13.1325 1.99692C12.0879 1.1661 11.6745 1.2793 11.3758 2.54008C11.0643 3.88082 10.8079 5.23091 10.5479 6.581C10.2832 7.95809 9.37677 8.76191 7.84614 9.03712C6.2956 9.32064 4.73569 9.57301 3.19687 9.9043C1.90865 10.1805 1.78569 10.6136 2.64527 11.4496C5.50042 14.2287 8.35596 17.0068 11.2119 19.7838C13.6642 22.1621 16.1153 24.5424 18.7561 27.1096ZM19.8956 27.9986L26.9597 26.7326C30.0584 26.1781 30.0573 26.1781 30.6452 23.3637C30.6674 23.2598 30.7037 23.1559 30.7236 23.0521C31.1066 21.0612 31.4884 19.0704 31.8748 17.0525C29.9472 17.0972 29.4483 17.4513 29.1274 18.9385C28.8592 20.1795 28.6262 21.4309 28.3744 22.6699C28.1004 24.0262 27.6401 24.4531 26.1083 24.747C24.5999 25.0347 23.0752 25.2662 21.5797 25.5986C20.0842 25.9309 19.7328 26.4554 19.8956 27.9986Z" fill="#8E8E93" stroke="#8E8E93" stroke-width="0.2"/>
<path d="M12.1414 9.30554C12.417 9.50001 12.6714 9.6517 12.8895 9.8345C16.5082 12.8857 20.1183 15.9434 23.7198 19.0076C23.9766 19.2274 23.986 19.6455 24.1114 19.9722C23.7468 19.8652 23.2801 19.8429 23.0338 19.6377C19.3698 16.5787 15.7257 13.5025 12.1015 10.4092C11.867 10.2059 11.7697 9.87339 11.6676 9.58655C11.6512 9.53988 11.9479 9.41736 12.1414 9.30554Z" fill="#8E8E93" stroke="#8E8E93" stroke-width="0.2"/>
</svg>
