<svg width="24" height="30" viewBox="0 0 24 30" fill="none" xmlns="http://www.w3.org/2000/svg">
<path d="M23.9872 8.34146C23.9872 10.4966 24.0307 12.6538 23.9575 14.806C23.9387 15.3602 23.6915 16.0391 23.3128 16.4279C19.1212 20.7296 14.8962 24.9977 10.638 29.2323C10.2297 29.638 9.52665 29.9231 8.94922 29.9441C6.63158 30.0248 4.309 30.0019 1.98839 29.975C0.626882 29.959 0.0108888 29.2861 0.0108888 27.8816C0.0039675 23.6948 -0.0207455 19.5081 0.0415459 15.3214C0.0710225 14.6588 0.328313 14.0272 0.769267 13.535C4.93258 9.25058 9.13445 5.00403 13.3749 0.795354C13.802 0.371695 14.5327 0.0716474 15.1349 0.0497169C17.4525 -0.034018 19.7751 0.00784847 22.0957 0.023798C23.3811 0.0317727 23.9743 0.650812 23.9832 1.96764C23.9941 4.09291 23.9862 6.21719 23.9872 8.34146ZM10.2435 27.7331C10.5322 27.5626 10.6519 27.5207 10.7319 27.44C14.596 23.5523 18.466 19.6646 22.3004 15.751C22.6171 15.3932 22.7988 14.9344 22.8135 14.4551C22.8521 10.393 22.8194 6.32983 22.8511 2.26769C22.857 1.43932 22.5297 1.20108 21.7635 1.21304C19.6277 1.24494 17.4891 1.19709 15.3544 1.26088C14.8583 1.2949 14.389 1.50012 14.0255 1.84204C11.1324 4.70896 8.29072 7.62373 5.41048 10.5146C4.36339 11.5643 3.26884 12.5671 2.19604 13.5918L2.36215 13.8391C2.65185 13.855 2.94255 13.8839 3.23225 13.8849C5.06441 13.8849 6.89063 13.8849 8.72675 13.8849C9.95874 13.8849 10.2326 14.158 10.2346 15.3981C10.2405 19.1197 10.2425 22.8435 10.2405 26.5697L10.2435 27.7331ZM9.71748 21.6772C9.71748 19.6168 9.68881 17.5563 9.73232 15.4968C9.74912 14.7093 9.51182 14.3933 8.70203 14.4063C6.53666 14.4401 4.3713 14.4375 2.20593 14.3983C1.42877 14.3863 1.20333 14.7183 1.20729 15.4509C1.22838 19.5712 1.22838 23.6915 1.20729 27.8118C1.20729 28.5864 1.52171 28.8485 2.24251 28.8416C4.3769 28.8236 6.51195 28.8236 8.64766 28.8416C9.40603 28.8485 9.74813 28.5953 9.72935 27.768C9.69078 25.7374 9.72045 23.7078 9.72045 21.6772H9.71748Z" fill="#8E8E93" stroke="#8E8E93" stroke-width="0.2"/>
<path fill-rule="evenodd" clip-rule="evenodd" d="M8.34551 25.3484C8.34533 25.8896 8.34515 26.4323 8.3451 26.9767L8.34551 25.3484ZM8.3451 26.9767C8.34515 26.4345 8.34533 25.894 8.3455 25.355L8.34551 25.3484V25.3484M7.90509 16.3123C7.87903 16.2809 7.85446 16.2573 7.83596 16.2425C6.51703 16.2138 5.19749 16.2161 3.86045 16.2184C3.60779 16.2188 3.35451 16.2193 3.10049 16.2195V26.9257H8.00224L8.00265 25.3477C8.00365 22.3457 8.00463 19.3909 7.9836 16.436C7.98175 16.4313 7.97883 16.4245 7.97445 16.4158C7.95948 16.3859 7.9353 16.3487 7.90509 16.3123Z" fill="#8E8E93"/>
</svg>
