<svg width="24" height="24" viewBox="0 0 24 24" fill="none" xmlns="http://www.w3.org/2000/svg">
<path d="M9.84713 14.8934C9.94579 15.0746 10.0696 15.2409 10.2149 15.3873C10.3095 15.4828 10.4131 15.5689 10.5243 15.6443C10.2977 15.3943 10.072 15.144 9.84713 14.8934ZM8.35936 3.9904C8.6557 4.25147 8.95145 4.51371 9.24662 4.77711C9.16428 4.63801 9.06503 4.50969 8.95116 4.39512C8.78064 4.22456 8.57995 4.08731 8.35936 3.9904ZM4.41986 8.93883C4.49024 9.00933 4.56601 9.07421 4.64647 9.13288C4.47622 8.94407 4.30481 8.75584 4.13224 8.5682C4.21305 8.70279 4.3096 8.82722 4.41986 8.93883ZM21.9018 15.021L19.9504 13.2771L18.4129 11.9021C15.5495 9.34267 12.6867 6.78294 9.82448 4.22291C9.50199 3.93154 9.17951 3.64337 8.85703 3.3584C8.29516 2.8549 7.7327 2.35257 7.16967 1.85141C5.74987 0.585671 3.71563 0.75263 2.23482 2.21679C0.754023 3.68095 0.578837 5.80071 1.86964 7.23603C2.41989 7.84675 2.97043 8.45864 3.52127 9.07169C3.7043 9.27624 3.88849 9.4802 4.07384 9.68358C5.79374 11.5927 7.51568 13.5006 9.23965 15.4074L9.96741 16.2133C10.5961 16.9126 11.2251 17.609 11.8544 18.3025L13.4424 20.0612C14.0199 20.7022 14.5972 21.3433 15.1742 21.9843C15.8331 22.7142 16.6506 23.0332 17.6207 22.9974C20.2921 22.91 23.0009 20.1128 22.9983 17.3156C23.0297 16.4502 22.6279 15.6705 21.9018 15.021ZM12.0173 17.2937L11.6077 16.8418L11.1632 16.3505L10.9017 16.0647L10.5226 15.6443C10.296 15.3943 10.0703 15.144 9.84539 14.8934C9.62924 14.6547 9.41484 14.4161 9.19956 14.1775L8.769 13.6993L7.91922 12.7561L6.58571 11.2762C6.41779 11.0903 6.24987 10.9044 6.08194 10.7185C5.95876 10.5822 5.83558 10.4461 5.7124 10.3103L5.29753 9.85142L4.64559 9.13288C4.47535 8.94407 4.30394 8.75584 4.13137 8.5682C3.91173 8.32577 3.69122 8.08393 3.46984 7.84267L3.04452 7.37851C2.93237 7.25439 2.81936 7.13084 2.70547 7.00788C1.86266 6.09092 1.49312 5.12763 2.01432 3.94844C2.56951 2.69319 3.50209 1.85053 4.91229 1.84529C5.47794 1.84529 6.17346 2.06295 6.59181 2.43095C6.81494 2.62676 7.03748 2.82344 7.25944 3.02099C7.41225 3.15502 7.56478 3.28964 7.71701 3.42484L8.35936 3.99302C8.6557 4.25409 8.95145 4.51633 9.24662 4.77973L9.87415 5.33655L10.6891 6.06208L11.2486 6.56033L12.7573 7.90823L13.8773 8.91086L14.4508 9.42397C14.9894 9.9059 15.5275 10.3881 16.0649 10.8706L16.8842 11.6058L17.3514 12.0245L17.9615 12.5717L19.3412 13.806L19.6671 14.0979C19.7543 14.1731 19.817 14.2658 19.9565 14.424C19.8266 14.4554 19.7003 14.4869 19.5774 14.5193C16.818 15.2439 15.7791 16.3051 14.5432 19.6023C14.5022 19.7124 14.4604 19.8261 14.4185 19.9415L13.9522 19.4266C13.4746 18.9021 13.0014 18.3803 12.5324 17.861C12.3593 17.6722 12.1876 17.4831 12.0173 17.2937ZM17.5257 22.1888C16.3055 22.1888 15.5167 21.5219 15.3764 20.4082C15.3612 20.2865 15.3536 20.1638 15.3537 20.0411C15.3537 19.9904 15.3537 19.9397 15.3537 19.8881C15.4505 17.7142 17.8499 15.3575 20.0184 15.3077C20.1491 15.3046 20.2798 15.3104 20.4097 15.3252C21.5358 15.4554 22.24 16.2728 22.24 17.4869C22.2261 19.7002 19.7412 22.1784 17.5257 22.1888Z" fill="#8E8E93" stroke="#8E8E93" stroke-width="0.2"/>
<path d="M15.1042 20.4398C14.1194 20.4398 13.2366 20.0902 12.5951 19.4495C12.0358 18.88 11.6931 18.1318 11.6269 17.3352C11.4866 15.9218 12.0888 14.3905 13.2366 13.2394C14.0854 12.388 15.1539 11.826 16.2389 11.6573C16.6224 11.5973 17.0123 11.5893 17.398 11.6337C18.1638 11.7146 18.8796 12.0536 19.4286 12.5952C20.1144 13.2822 20.463 14.2559 20.4099 15.324L19.6255 15.2855C19.6665 14.4377 19.3989 13.6799 18.8725 13.1511C18.4477 12.7348 17.8947 12.475 17.3038 12.4142C16.9889 12.3779 16.6705 12.3847 16.3574 12.4344C15.4336 12.5733 14.5229 13.0593 13.7908 13.797C12.8078 14.7794 12.2901 16.0695 12.4078 17.2548C12.457 17.8703 12.7194 18.4491 13.1494 18.891C13.688 19.4303 14.4567 19.6977 15.3282 19.6435L15.377 20.4302C15.2828 20.4346 15.1931 20.4398 15.1042 20.4398Z" fill="#8E8E93" stroke="#8E8E93" stroke-width="0.2"/>
<path d="M10.5242 15.6446C10.4963 15.6263 10.4693 15.6062 10.4423 15.5861C10.4153 15.566 10.3795 15.5371 10.349 15.5118C10.3185 15.4864 10.3098 15.4777 10.2906 15.4602C10.2715 15.4427 10.2392 15.4121 10.2148 15.3877C10.1904 15.3632 10.1625 15.3335 10.1381 15.3055C10.1137 15.2775 10.1094 15.274 10.0963 15.2574C10.0579 15.2129 10.0222 15.17 9.98823 15.1185L9.9525 15.0678C9.94378 15.0547 9.93507 15.0415 9.92722 15.0284C9.89934 14.9847 9.87232 14.941 9.84705 14.8938C9.71643 14.6513 9.62801 14.3882 9.5856 14.1159C9.42001 13.0505 9.87755 11.8242 10.7848 10.9125C11.814 9.88113 13.2067 9.44236 14.3353 9.79548C14.6785 9.89934 14.991 10.0864 15.2451 10.34C15.4395 10.5358 15.9536 10.6092 16.0643 10.8644L16.4251 10.7089C16.2774 10.3628 16.065 10.0483 15.7994 9.78237C15.4559 9.43733 15.0325 9.18298 14.5671 9.04204C14.3424 8.97221 14.1111 8.92622 13.8769 8.90482C12.635 8.78594 11.2667 9.31562 10.2305 10.3549C9.29451 11.2927 8.7629 12.5321 8.77074 13.6946C8.76926 13.8752 8.78237 14.0555 8.80996 14.2339C8.87223 14.647 9.01623 15.0435 9.23351 15.3999C9.35262 15.5956 9.49451 15.7763 9.65619 15.9383C9.75159 16.0344 9.85351 16.1238 9.96121 16.2058C10.2887 16.4519 10.6625 16.6289 11.0602 16.7258L11.1552 16.3439L10.5242 15.6446Z" fill="#8E8E93" stroke="#8E8E93" stroke-width="0.2"/>
<path d="M13.1185 7.75435L12.7568 7.90556L12.5973 7.71414C12.4989 7.47727 12.1773 7.40735 11.9986 7.22817C11.7668 6.99654 11.4635 7.0315 11.1376 6.93536C10.7523 6.82572 10.347 6.80688 9.95322 6.88029C9.19711 7.02449 8.50345 7.39827 7.9662 7.95101C7.41535 8.48921 7.04293 9.18435 6.89948 9.9421C6.82343 10.3465 6.84464 10.7633 6.96136 11.1579C7.05984 11.4752 7.29776 11.6946 7.44678 11.9743C7.63241 12.3239 7.6847 12.6569 7.92088 12.7557L7.77011 13.1184C7.44186 12.9821 7.14364 12.7822 6.89251 12.5302C6.57628 12.2132 6.34281 11.8229 6.21274 11.3939C6.14538 11.1747 6.10213 10.9487 6.08376 10.72C6.07225 10.5863 6.06905 10.452 6.07417 10.3179C6.07964 10.1476 6.09712 9.97795 6.12646 9.81012C6.14302 9.71397 6.16307 9.6187 6.1866 9.52343C6.39683 8.71562 6.8215 7.98009 7.41541 7.39511C8.0659 6.72826 8.90494 6.27791 9.81901 6.10501C10.1066 6.05469 10.3992 6.03943 10.6905 6.05956C10.9182 6.07542 11.1435 6.11616 11.3624 6.18105C11.8049 6.30935 12.2078 6.54778 12.5337 6.87417C12.7844 7.12619 12.9831 7.42528 13.1185 7.75435Z" fill="#8E8E93" stroke="#8E8E93" stroke-width="0.2"/>
<path d="M6.44448 9.48871L6.58044 10.2631C6.41317 10.2932 6.24394 10.311 6.0741 10.3164C6.07957 10.1461 6.09704 9.97644 6.12639 9.80861C6.14295 9.71247 6.16299 9.61719 6.18652 9.52192C6.27193 9.51406 6.35821 9.50357 6.44448 9.48871Z" fill="#8E8E93" stroke="#8E8E93" stroke-width="0.2"/>
<path d="M9.87357 5.33365H10.2657V5.29257L10.257 5.25236C10.1804 4.88438 10.0324 4.53511 9.82128 4.22447C9.72717 4.08733 9.62101 3.95891 9.50405 3.84076C9.31258 3.64875 9.09342 3.4867 8.85391 3.36003C8.51223 3.18053 8.13896 3.0695 7.75495 3.03314H7.73404C7.57558 3.01827 7.41628 3.01476 7.25733 3.02265C6.24029 3.06723 5.1971 3.54708 4.38138 4.36345C3.52382 5.22352 3.0445 6.31871 3.04014 7.37893C3.03934 7.54384 3.05041 7.70859 3.07326 7.8719V7.90162C3.13151 8.31898 3.28025 8.71847 3.50901 9.07197C3.61062 9.22554 3.72741 9.36844 3.85761 9.49851C3.92267 9.56467 3.99164 9.62684 4.06415 9.68469C4.39676 9.95284 4.78558 10.142 5.20146 10.238L5.24591 10.2485C5.39685 10.2818 5.55009 10.3037 5.70431 10.314L5.28948 9.85513L4.6376 9.13665C4.55715 9.07799 4.48139 9.01311 4.41101 8.94261C4.30077 8.83101 4.20422 8.7066 4.12342 8.57202C3.98687 8.3393 3.8955 8.08277 3.85412 7.81596L3.84976 7.78712C3.70597 6.83352 4.1208 5.73571 4.93217 4.92197C5.71652 4.13532 6.73704 3.72714 7.66955 3.82066H7.68087C7.91225 3.84362 8.13866 3.90259 8.35193 3.99547C8.57243 4.09212 8.7731 4.22905 8.94368 4.39928C9.05934 4.51187 9.16062 4.63841 9.24522 4.776L9.87357 5.33365Z" fill="#8E8E93" stroke="#8E8E93" stroke-width="0.2"/>
</svg>
