<svg width="16" height="17" viewBox="0 0 16 17" fill="none" xmlns="http://www.w3.org/2000/svg">
<path d="M4.8 13.423C3.92 13.423 3.208 14.143 3.208 15.023C3.208 15.903 3.92 16.623 4.8 16.623C5.68 16.623 6.4 15.903 6.4 15.023C6.4 14.143 5.68 13.423 4.8 13.423ZM0 0.623047V2.22305H1.6L4.48 8.29505L3.4 10.255C3.272 10.479 3.2 10.743 3.2 11.023C3.2 11.903 3.92 12.623 4.8 12.623H14.4V11.023H5.136C5.024 11.023 4.936 10.935 4.936 10.823L4.96 10.727L5.68 9.42305H11.64C12.24 9.42305 12.768 9.09505 13.04 8.59905L15.904 3.40705C15.968 3.29505 16 3.15905 16 3.02305C16 2.58305 15.64 2.22305 15.2 2.22305H3.368L2.616 0.623047H0ZM12.8 13.423C11.92 13.423 11.208 14.143 11.208 15.023C11.208 15.903 11.92 16.623 12.8 16.623C13.68 16.623 14.4 15.903 14.4 15.023C14.4 14.143 13.68 13.423 12.8 13.423Z" fill="#2C2C2E"/>
</svg>
