<svg width="20" height="15" viewBox="0 0 20 15" fill="none" xmlns="http://www.w3.org/2000/svg">
<path d="M16.6666 4.28963H14.1666V0.956299H2.49992C1.58325 0.956299 0.833252 1.7063 0.833252 2.62297V11.7896H2.49992C2.49992 13.173 3.61659 14.2896 4.99992 14.2896C6.38325 14.2896 7.49992 13.173 7.49992 11.7896H12.4999C12.4999 13.173 13.6166 14.2896 14.9999 14.2896C16.3833 14.2896 17.4999 13.173 17.4999 11.7896H19.1666V7.62297L16.6666 4.28963ZM4.99992 13.0396C4.30825 13.0396 3.74992 12.4813 3.74992 11.7896C3.74992 11.098 4.30825 10.5396 4.99992 10.5396C5.69159 10.5396 6.24992 11.098 6.24992 11.7896C6.24992 12.4813 5.69159 13.0396 4.99992 13.0396ZM16.2499 5.53963L17.8833 7.62297H14.1666V5.53963H16.2499ZM14.9999 13.0396C14.3083 13.0396 13.7499 12.4813 13.7499 11.7896C13.7499 11.098 14.3083 10.5396 14.9999 10.5396C15.6916 10.5396 16.2499 11.098 16.2499 11.7896C16.2499 12.4813 15.6916 13.0396 14.9999 13.0396Z" fill="#E63946"/>
</svg>
