<svg width="16" height="20" viewBox="0 0 16 20" fill="none" xmlns="http://www.w3.org/2000/svg">
<path d="M11.3333 10.0396L8 6.7063L8 9.2063L0.5 9.2063L0.5 10.873L8 10.873L8 13.373L11.3333 10.0396ZM0.499999 2.53963L0.499999 7.53963L2.15833 7.53963L2.15833 2.53963L13.85 2.53963L13.85 17.5396L2.15833 17.5396L2.15833 12.5396L0.5 12.5396L0.5 17.5396C0.5 18.4563 1.25 19.2063 2.16667 19.2063L13.8333 19.2063C14.75 19.2063 15.5 18.4563 15.5 17.5396L15.5 2.53963C15.5 1.62296 14.75 0.872964 13.8333 0.872964L2.16667 0.872965C1.25 0.872965 0.499999 1.62296 0.499999 2.53963Z" fill="#2C2C2E"/>
</svg>
