<svg width="18" height="19" viewBox="0 0 18 19" fill="none" xmlns="http://www.w3.org/2000/svg">
<path d="M9 0.623047C4.032 0.623047 0 4.65505 0 9.62305C0 14.591 4.032 18.623 9 18.623C13.968 18.623 18 14.591 18 9.62305C18 4.65505 13.968 0.623047 9 0.623047ZM9.9 15.923H8.1V14.123H9.9V15.923ZM11.763 8.94805L10.953 9.77605C10.305 10.433 9.9 10.973 9.9 12.323H8.1V11.873C8.1 10.883 8.505 9.98305 9.153 9.32605L10.269 8.19205C10.602 7.86805 10.8 7.41805 10.8 6.92305C10.8 5.93305 9.99 5.12305 9 5.12305C8.01 5.12305 7.2 5.93305 7.2 6.92305H5.4C5.4 4.93405 7.011 3.32305 9 3.32305C10.989 3.32305 12.6 4.93405 12.6 6.92305C12.6 7.71505 12.276 8.43505 11.763 8.94805Z" fill="#E63946"/>
</svg>
