<svg width="14" height="18" viewBox="0 0 14 18" fill="none" xmlns="http://www.w3.org/2000/svg">
<path d="M11.9999 6.28963H11.1666V4.62297C11.1666 2.32297 9.29992 0.456299 6.99992 0.456299C4.69992 0.456299 2.83325 2.32297 2.83325 4.62297V6.28963H1.99992C1.08325 6.28963 0.333252 7.03963 0.333252 7.9563V16.2896C0.333252 17.2063 1.08325 17.9563 1.99992 17.9563H11.9999C12.9166 17.9563 13.6666 17.2063 13.6666 16.2896V7.9563C13.6666 7.03963 12.9166 6.28963 11.9999 6.28963ZM6.99992 13.7896C6.08325 13.7896 5.33325 13.0396 5.33325 12.123C5.33325 11.2063 6.08325 10.4563 6.99992 10.4563C7.91658 10.4563 8.66658 11.2063 8.66658 12.123C8.66658 13.0396 7.91658 13.7896 6.99992 13.7896ZM9.58325 6.28963H4.41658V4.62297C4.41658 3.19797 5.57492 2.03963 6.99992 2.03963C8.42492 2.03963 9.58325 3.19797 9.58325 4.62297V6.28963Z" fill="#323232"/>
</svg>
