<svg width="15" height="15" viewBox="0 0 15 15" fill="none" xmlns="http://www.w3.org/2000/svg">
<path d="M0.226552 7.13521C1.76109 6.18264 3.47405 5.38762 5.07456 4.58853C7.82806 3.27969 10.5925 1.99352 13.3848 0.79612C13.9281 0.592095 14.9043 0.392569 15 1.2999C14.9476 2.58421 14.732 3.861 14.5841 5.1378C14.2087 7.94558 13.7749 10.7438 13.3518 13.5423C13.206 14.4745 12.1698 14.957 11.5068 14.3605C9.91339 13.1476 8.30774 11.9465 6.73469 10.7054C6.2194 10.1153 6.69722 9.26799 7.15744 8.84663C8.46981 7.38911 9.8616 6.15078 11.1054 4.61793C11.4409 3.70487 10.4496 4.47438 10.1226 4.71014C8.32596 6.10541 6.57328 7.58586 4.67906 8.81211C3.71149 9.41235 2.58377 8.89939 1.61664 8.56444C0.749477 8.15984 -0.521228 7.75222 0.226465 7.13528L0.226552 7.13521Z" fill="#E63946"/>
</svg>
