<svg width="26" height="26" viewBox="0 0 26 26" fill="none" xmlns="http://www.w3.org/2000/svg">
<path d="M13 5.02661C15.4411 5.02661 17.0878 6.08106 18.0267 6.96217L21.6956 3.37994C19.4423 1.2855 16.51 -6.10352e-05 13 -6.10352e-05C7.91558 -6.10352e-05 3.52447 2.91772 1.38669 7.16439L5.59002 10.4288C6.64447 7.29439 9.56225 5.02661 13 5.02661Z" fill="#EA4335"/>
<path d="M25.48 13.2888C25.48 12.2199 25.3933 11.4399 25.2056 10.631H13V15.4555H20.1644C20.02 16.6544 19.24 18.4599 17.5067 19.6733L21.6089 22.8511C24.0645 20.5833 25.48 17.2466 25.48 13.2888Z" fill="#4285F4"/>
<path d="M5.60448 15.5711C5.33004 14.7622 5.17115 13.8955 5.17115 13C5.17115 12.1044 5.33004 11.2378 5.59004 10.4289L1.3867 7.16443C0.505587 8.92665 3.05176e-05 10.9055 3.05176e-05 13C3.05176e-05 15.0944 0.505587 17.0733 1.3867 18.8355L5.60448 15.5711Z" fill="#FBBC05"/>
<path d="M13 25.9999C16.51 25.9999 19.4567 24.8444 21.6089 22.8511L17.5067 19.6733C16.4089 20.4388 14.9355 20.9733 13 20.9733C9.56221 20.9733 6.64443 18.7055 5.60443 15.571L1.40109 18.8355C3.53887 23.0822 7.91554 25.9999 13 25.9999Z" fill="#34A853"/>
</svg>
