<svg width="30" height="22" viewBox="0 0 30 22" fill="none" xmlns="http://www.w3.org/2000/svg">
<path d="M25.6667 5.66658H21.6667V0.333252H3.00001C1.53334 0.333252 0.333344 1.53325 0.333344 2.99992V17.6666H3.00001C3.00001 19.8799 4.78668 21.6666 7.00001 21.6666C9.21334 21.6666 11 19.8799 11 17.6666H19C19 19.8799 20.7867 21.6666 23 21.6666C25.2133 21.6666 27 19.8799 27 17.6666H29.6667V10.9999L25.6667 5.66658ZM7.00001 19.6666C5.89334 19.6666 5.00001 18.7733 5.00001 17.6666C5.00001 16.5599 5.89334 15.6666 7.00001 15.6666C8.10668 15.6666 9.00001 16.5599 9.00001 17.6666C9.00001 18.7733 8.10668 19.6666 7.00001 19.6666ZM25 7.66658L27.6133 10.9999H21.6667V7.66658H25ZM23 19.6666C21.8933 19.6666 21 18.7733 21 17.6666C21 16.5599 21.8933 15.6666 23 15.6666C24.1067 15.6666 25 16.5599 25 17.6666C25 18.7733 24.1067 19.6666 23 19.6666Z" fill="white"/>
</svg>
