<svg width="23" height="17" viewBox="0 0 23 17" fill="none" xmlns="http://www.w3.org/2000/svg">
<path d="M18.8182 10.625V2.125C18.8182 0.95625 17.8773 0 16.7273 0H2.09091C0.940909 0 0 0.95625 0 2.125V10.625C0 11.7937 0.940909 12.75 2.09091 12.75H16.7273C17.8773 12.75 18.8182 11.7937 18.8182 10.625ZM16.7273 10.625H2.09091V2.125H16.7273V10.625ZM9.40909 3.1875C7.67364 3.1875 6.27273 4.61125 6.27273 6.375C6.27273 8.13875 7.67364 9.5625 9.40909 9.5625C11.1445 9.5625 12.5455 8.13875 12.5455 6.375C12.5455 4.61125 11.1445 3.1875 9.40909 3.1875ZM23 3.1875V14.875C23 16.0438 22.0591 17 20.9091 17H3.13636C3.13636 15.9375 3.13636 16.0438 3.13636 14.875H20.9091V3.1875C22.0591 3.1875 21.9545 3.1875 23 3.1875Z" fill="white"/>
</svg>
