<svg width="18" height="19" viewBox="0 0 18 19" fill="none" xmlns="http://www.w3.org/2000/svg">
<path d="M7.23935 11.8709C7.32007 12.0192 7.42139 12.1553 7.54027 12.2751C7.61764 12.3533 7.70243 12.4237 7.79342 12.4854C7.60802 12.2808 7.42333 12.0759 7.23935 11.8709ZM6.02209 2.9474C6.26454 3.16107 6.50652 3.3757 6.74802 3.59128C6.68065 3.47743 6.59945 3.37242 6.50628 3.27864C6.36677 3.13905 6.20257 3.02672 6.02209 2.9474ZM2.79889 6.9974C2.85648 7.0551 2.91847 7.1082 2.9843 7.15622C2.845 7.00169 2.70476 6.84764 2.56357 6.69406C2.62968 6.80422 2.70869 6.90605 2.79889 6.9974ZM17.1022 11.9753L15.5056 10.548L14.2477 9.42268C11.9049 7.32793 9.56262 5.23293 7.22081 3.1377C6.95696 2.89923 6.69312 2.66338 6.42927 2.43015C5.96956 2.01807 5.50937 1.60694 5.04871 1.19677C3.88708 0.160835 2.22271 0.297481 1.01116 1.49581C-0.200397 2.69414 -0.34373 4.42904 0.712367 5.60376C1.16257 6.1036 1.61301 6.6044 2.06369 7.10614C2.21344 7.27355 2.36414 7.44049 2.51579 7.60694C3.92297 9.16942 5.33181 10.7309 6.74232 12.2915L7.33775 12.9511C7.85214 13.5235 8.36675 14.0934 8.88161 14.661L10.1809 16.1004C10.6534 16.6251 11.1257 17.1497 11.5978 17.6743C12.1369 18.2717 12.8058 18.5329 13.5995 18.5035C15.7851 18.432 18.0014 16.1426 17.9993 13.8533C18.0249 13.145 17.6962 12.5069 17.1022 11.9753ZM9.01496 13.8354L8.6798 13.4655L8.31612 13.0635L8.10219 12.8295L7.792 12.4854C7.60659 12.2808 7.4219 12.0759 7.23792 11.8709C7.06107 11.6755 6.88565 11.4802 6.70952 11.2849L6.35725 10.8936L5.66198 10.1216L4.57094 8.91044C4.43355 8.75829 4.29616 8.60614 4.15877 8.454C4.05798 8.34239 3.9572 8.23103 3.85641 8.1199L3.51698 7.7443L2.98358 7.15622C2.84429 7.00169 2.70405 6.84764 2.56286 6.69406C2.38315 6.49565 2.20274 6.29772 2.02161 6.10026L1.67362 5.72037C1.58187 5.61878 1.48941 5.51767 1.39623 5.41704C0.706662 4.66656 0.404309 3.87816 0.830741 2.91306C1.28498 1.88572 2.048 1.19605 3.20179 1.19176C3.66459 1.19176 4.23364 1.3699 4.57593 1.67109C4.75848 1.83134 4.94056 1.99231 5.12216 2.154C5.24719 2.2637 5.37198 2.37387 5.49654 2.48452L6.02209 2.94955C6.26454 3.16322 6.50652 3.37785 6.74802 3.59343L7.26145 4.04915L7.9282 4.64295L8.38601 5.05074L9.62038 6.15392L10.5367 6.97451L11.0059 7.39446C11.4466 7.7889 11.8868 8.18357 12.3266 8.57848L12.9969 9.18015L13.3791 9.52284L13.8783 9.97069L15.0071 10.9809L15.2738 11.2198C15.3451 11.2813 15.3965 11.3572 15.5106 11.4867C15.4043 11.5124 15.3009 11.5382 15.2004 11.5647C12.9427 12.1577 12.0927 13.0263 11.0815 15.7248C11.048 15.815 11.0138 15.908 10.9795 16.0024L10.598 15.581C10.2073 15.1518 9.82005 14.7247 9.4364 14.2997C9.29473 14.1452 9.15425 13.9904 9.01496 13.8354ZM13.5217 17.8418C12.5234 17.8418 11.878 17.2959 11.7632 16.3844C11.7508 16.2848 11.7446 16.1844 11.7447 16.084C11.7447 16.0425 11.7447 16.001 11.7447 15.9588C11.8238 14.1795 13.787 12.2507 15.5612 12.21C15.6681 12.2074 15.7751 12.2122 15.8814 12.2243C16.8027 12.3309 17.3789 12.9998 17.3789 13.9935C17.3675 15.805 15.3344 17.8332 13.5217 17.8418Z" fill="white" stroke="white" stroke-width="0.2"/>
<path d="M11.5408 16.4109C10.735 16.4109 10.0126 16.1248 9.48777 15.6004C9.03006 15.1342 8.74972 14.5218 8.69552 13.8697C8.58071 12.7129 9.07346 11.4595 10.0126 10.5173C10.7072 9.82046 11.5814 9.36045 12.4692 9.22237C12.7831 9.17323 13.1021 9.16673 13.4176 9.20305C14.0443 9.26928 14.63 9.54671 15.0792 9.99002C15.6404 10.5523 15.9256 11.3493 15.8821 12.2236L15.2403 12.1921C15.2738 11.4981 15.0549 10.8779 14.6242 10.445C14.2766 10.1043 13.8241 9.89168 13.3406 9.84193C13.0829 9.81216 12.8224 9.8177 12.5662 9.85838C11.8103 9.97213 11.0651 10.3699 10.4661 10.9737C9.66176 11.7779 9.23818 12.8338 9.33445 13.8039C9.37476 14.3077 9.58944 14.7815 9.9413 15.1432C10.382 15.5846 11.0109 15.8035 11.724 15.7592L11.764 16.4031C11.687 16.4066 11.6135 16.4109 11.5408 16.4109Z" fill="white" stroke="white" stroke-width="0.2"/>
<path d="M7.79343 12.4861C7.77061 12.4711 7.7485 12.4547 7.7264 12.4382C7.70429 12.4217 7.67505 12.3981 7.65009 12.3774C7.62514 12.3566 7.618 12.3495 7.60232 12.3352C7.58663 12.3209 7.56024 12.2958 7.54028 12.2758C7.52031 12.2558 7.49749 12.2314 7.47752 12.2085C7.45756 12.1857 7.45399 12.1828 7.4433 12.1692C7.41192 12.1327 7.38268 12.0977 7.35487 12.0554L7.32563 12.014C7.3185 12.0032 7.31137 11.9925 7.30496 11.9818C7.28214 11.946 7.26003 11.9102 7.23935 11.8716C7.13247 11.6731 7.06013 11.4578 7.02542 11.2349C6.88993 10.3628 7.26431 9.35903 8.00664 8.61284C8.84881 7.76864 9.98834 7.4095 10.9118 7.69853C11.1927 7.78354 11.4483 7.93662 11.6563 8.14424C11.8153 8.30449 12.236 8.36459 12.3266 8.57349L12.6218 8.44615C12.5009 8.16291 12.3271 7.90549 12.1098 7.6878C11.8287 7.40538 11.4823 7.1972 11.1015 7.08184C10.9177 7.02468 10.7284 6.98704 10.5367 6.96952C9.52055 6.87222 8.40099 7.30577 7.55311 8.1564C6.78725 8.92405 6.35226 9.93852 6.35867 10.89C6.35746 11.0378 6.36819 11.1854 6.39076 11.3314C6.44171 11.6696 6.55955 11.9941 6.73733 12.2858C6.83479 12.446 6.95089 12.5939 7.08318 12.7265C7.16124 12.8052 7.24464 12.8783 7.33277 12.9454C7.6007 13.1469 7.90662 13.2917 8.23198 13.3711L8.30971 13.0585L7.79343 12.4861Z" fill="white" stroke="white" stroke-width="0.2"/>
<path d="M9.91632 6.02802L9.62039 6.15179L9.48989 5.99511C9.40931 5.80123 9.14618 5.744 8.99999 5.59734C8.81031 5.40775 8.56215 5.43637 8.29545 5.35767C7.9802 5.26793 7.64853 5.25251 7.32635 5.3126C6.70767 5.43063 6.1401 5.73657 5.70049 6.18899C5.24976 6.62952 4.94503 7.1985 4.82766 7.81872C4.76543 8.14976 4.78278 8.49091 4.87829 8.81387C4.95887 9.07357 5.15355 9.25314 5.27549 9.48208C5.42737 9.76825 5.47016 10.0408 5.66341 10.1217L5.54005 10.4186C5.27146 10.307 5.02744 10.1434 4.82196 9.93709C4.5632 9.67763 4.37216 9.35819 4.26574 9.00704C4.21062 8.82758 4.17523 8.64262 4.1602 8.45545C4.15078 8.34602 4.14816 8.23611 4.15236 8.12635C4.15683 7.98696 4.17113 7.84806 4.19514 7.71069C4.20869 7.632 4.22509 7.55402 4.24435 7.47604C4.41637 6.81484 4.76385 6.2128 5.24981 5.73398C5.78207 5.18816 6.46861 4.81955 7.21654 4.67802C7.45187 4.63684 7.69131 4.62435 7.92963 4.64082C8.11596 4.6538 8.30032 4.68715 8.47943 4.74026C8.84147 4.84528 9.17116 5.04044 9.43784 5.30759C9.64295 5.51387 9.80555 5.75868 9.91632 6.02802Z" fill="white" stroke="white" stroke-width="0.2"/>
<path d="M4.45541 7.44751L4.56666 8.08137C4.42979 8.10598 4.29132 8.12056 4.15234 8.12501C4.15682 7.98562 4.17112 7.84672 4.19513 7.70935C4.20868 7.63066 4.22508 7.55268 4.24433 7.4747C4.31422 7.46826 4.38481 7.45967 4.45541 7.44751Z" fill="white" stroke="white" stroke-width="0.2"/>
<path d="M7.26144 4.04703H7.58234V4.0134L7.57521 3.98049C7.51252 3.67929 7.39137 3.39342 7.21866 3.13916C7.14166 3.0269 7.05479 2.92179 6.95909 2.82509C6.80242 2.66792 6.6231 2.53528 6.42712 2.4316C6.14754 2.28468 5.84212 2.1938 5.5279 2.16404H5.51079C5.38114 2.15187 5.25079 2.149 5.12073 2.15545C4.28854 2.19194 3.43496 2.5847 2.7675 3.25291C2.06582 3.95688 1.67361 4.8533 1.67005 5.72111C1.66939 5.85609 1.67845 5.99094 1.69714 6.12461V6.14893C1.74481 6.49055 1.86652 6.81753 2.05369 7.10688C2.13684 7.23258 2.2324 7.34955 2.33893 7.45601C2.39217 7.51016 2.44861 7.56104 2.50794 7.60839C2.78009 7.82787 3.09824 7.9827 3.43853 8.06125L3.4749 8.06984C3.5984 8.09716 3.72379 8.1151 3.84999 8.1235L3.51055 7.7479L2.97716 7.15982C2.91133 7.1118 2.84934 7.0587 2.79175 7.001C2.70154 6.90965 2.62254 6.80782 2.55643 6.69766C2.4447 6.50718 2.36994 6.29721 2.33608 6.07882L2.33251 6.05521C2.21485 5.27469 2.55429 4.37612 3.21818 3.71006C3.85997 3.06618 4.69501 2.73208 5.45802 2.80863H5.46729C5.65662 2.82742 5.84187 2.87569 6.01638 2.95172C6.1968 3.03082 6.36099 3.1429 6.50057 3.28224C6.59521 3.37439 6.67808 3.47796 6.7473 3.59059L7.26144 4.04703Z" fill="white" stroke="white" stroke-width="0.2"/>
</svg>
