<svg width="14" height="17" viewBox="0 0 14 17" fill="none" xmlns="http://www.w3.org/2000/svg">
<path d="M13.9925 4.72683C13.9925 5.94809 14.0179 7.17049 13.9752 8.39006C13.9642 8.70413 13.8201 9.08881 13.5992 9.30912C11.154 11.7468 8.68947 14.1654 6.20551 16.565C5.9673 16.7949 5.55721 16.9564 5.22037 16.9683C3.86842 17.0141 2.51358 17.0011 1.15989 16.9858C0.365678 16.9768 0.00634924 16.5955 0.00634924 15.7996C0.00231183 13.4271 -0.0121041 11.0546 0.0242326 8.6821C0.0414273 8.30664 0.191513 7.94875 0.448736 7.66984C2.87733 5.24199 5.32842 2.83561 7.80201 0.450696C8.05118 0.210623 8.47741 0.0405961 8.82867 0.0281688C10.1806 -0.0192809 11.5355 0.0044434 12.8891 0.0134814C13.639 0.0180005 13.985 0.36879 13.9902 1.11499C13.9965 2.31931 13.9919 3.52307 13.9925 4.72683ZM5.97538 15.7154C6.14379 15.6188 6.21358 15.5951 6.2603 15.5493C8.51432 13.3463 10.7718 11.1433 13.0085 8.92556C13.1933 8.72284 13.2993 8.46284 13.3079 8.19122C13.3304 5.88934 13.3113 3.5869 13.3298 1.28502C13.3333 0.815609 13.1423 0.680605 12.6953 0.687384C11.4495 0.70546 10.202 0.678345 8.95671 0.714497C8.66735 0.733772 8.39361 0.850067 8.18153 1.04382C6.49389 2.66841 4.83625 4.32011 3.15611 5.95826C2.54531 6.55307 1.90682 7.12134 1.28102 7.70203L1.37792 7.84213C1.54691 7.85117 1.71648 7.86755 1.88548 7.86811C2.95424 7.86811 4.01953 7.86811 5.0906 7.86811C5.80926 7.86811 5.96903 8.02288 5.97018 8.72559C5.97364 10.8345 5.9748 12.9447 5.97364 15.0562L5.97538 15.7154ZM5.66853 12.2838C5.66853 11.1162 5.6518 9.94855 5.67718 8.78151C5.68699 8.33526 5.54856 8.1562 5.07618 8.16354C3.81305 8.18275 2.54992 8.18124 1.28679 8.15903C0.833445 8.15225 0.701943 8.34035 0.70425 8.75553C0.716554 11.0904 0.716554 13.4252 0.70425 15.76C0.70425 16.1989 0.887662 16.3475 1.30813 16.3435C2.55319 16.3334 3.79863 16.3334 5.04446 16.3435C5.48685 16.3475 5.68641 16.204 5.67545 15.7352C5.65295 14.5845 5.67026 13.4344 5.67026 12.2838H5.66853Z" fill="white" stroke="white" stroke-width="0.2"/>
<path fill-rule="evenodd" clip-rule="evenodd" d="M4.86822 14.364C4.86825 14.2575 4.86829 14.151 4.86832 14.0446C4.86829 14.151 4.86825 14.2575 4.86822 14.364V14.364ZM4.6113 9.24362C4.59611 9.22583 4.58177 9.21245 4.57098 9.20405C3.8016 9.18782 3.03187 9.1891 2.25193 9.1904L2.25193 9.1904L1.80862 9.19103V15.2578H4.66798L4.66822 14.3637C4.6688 12.6626 4.66937 10.9882 4.6571 9.31373C4.65602 9.31104 4.65432 9.3072 4.65177 9.30225C4.64303 9.28532 4.62893 9.26425 4.6113 9.24362Z" fill="white"/>
</svg>
