<svg width="18" height="19" viewBox="0 0 18 19" fill="none" xmlns="http://www.w3.org/2000/svg">
<path d="M7.23935 11.8709C7.32007 12.0193 7.42139 12.1554 7.54027 12.2751C7.61764 12.3533 7.70243 12.4238 7.79342 12.4855C7.60802 12.2808 7.42333 12.076 7.23935 11.8709ZM6.02209 2.94746C6.26454 3.16113 6.50652 3.37576 6.74802 3.59134C6.68065 3.47749 6.59945 3.37248 6.50628 3.2787C6.36677 3.13911 6.20257 3.02678 6.02209 2.94746ZM2.79889 6.99746C2.85648 7.05516 2.91847 7.10827 2.9843 7.15629C2.845 7.00175 2.70476 6.8477 2.56357 6.69412C2.62968 6.80428 2.70869 6.90612 2.79889 6.99746ZM17.1022 11.9754L15.5056 10.5481L14.2477 9.42274C11.9049 7.32799 9.56262 5.233 7.22081 3.13776C6.95696 2.89929 6.69312 2.66344 6.42927 2.43021C5.96956 2.01813 5.50937 1.607 5.04871 1.19683C3.88708 0.160896 2.22271 0.297542 1.01116 1.49587C-0.200397 2.6942 -0.34373 4.4291 0.712367 5.60382C1.16257 6.10366 1.61301 6.60446 2.06369 7.10621C2.21344 7.27361 2.36414 7.44055 2.51579 7.607C3.92297 9.16948 5.33181 10.731 6.74232 12.2916L7.33775 12.9512C7.85214 13.5235 8.36675 14.0935 8.88161 14.6611L10.1809 16.1005C10.6534 16.6251 11.1257 17.1498 11.5978 17.6744C12.1369 18.2718 12.8058 18.5329 13.5995 18.5036C15.7851 18.432 18.0014 16.1427 17.9993 13.8533C18.0249 13.1451 17.6962 12.5069 17.1022 11.9754ZM9.01496 13.8355L8.6798 13.4656L8.31612 13.0635L8.10219 12.8296L7.792 12.4855C7.60659 12.2808 7.4219 12.076 7.23792 11.8709C7.06107 11.6756 6.88565 11.4803 6.70952 11.285L6.35725 10.8936L5.66198 10.1217L4.57094 8.9105C4.43355 8.75835 4.29616 8.60621 4.15877 8.45406C4.05798 8.34245 3.9572 8.23109 3.85641 8.11996L3.51698 7.74436L2.98358 7.15629C2.84429 7.00175 2.70405 6.8477 2.56286 6.69412C2.38315 6.49571 2.20274 6.29778 2.02161 6.10032L1.67362 5.72044C1.58187 5.61885 1.48941 5.51773 1.39623 5.4171C0.706662 4.66662 0.404309 3.87823 0.830741 2.91312C1.28498 1.88578 2.048 1.19611 3.20179 1.19182C3.66459 1.19182 4.23364 1.36996 4.57593 1.67115C4.75848 1.83141 4.94056 1.99237 5.12216 2.15406C5.24719 2.26376 5.37198 2.37393 5.49654 2.48458L6.02209 2.94961C6.26454 3.16328 6.50652 3.37791 6.74802 3.59349L7.26145 4.04921L7.9282 4.64301L8.38601 5.0508L9.62038 6.15398L10.5367 6.97457L11.0059 7.39452C11.4466 7.78896 11.8868 8.18363 12.3266 8.57854L12.9969 9.18021L13.3791 9.5229L13.8783 9.97075L15.0071 10.9809L15.2738 11.2199C15.3451 11.2814 15.3965 11.3572 15.5106 11.4867C15.4043 11.5125 15.3009 11.5382 15.2004 11.5647C12.9427 12.1578 12.0927 13.0263 11.0815 15.7249C11.048 15.815 11.0138 15.908 10.9795 16.0025L10.598 15.5811C10.2073 15.1518 9.82005 14.7247 9.4364 14.2998C9.29473 14.1452 9.15425 13.9905 9.01496 13.8355ZM13.5217 17.8418C12.5234 17.8418 11.878 17.296 11.7632 16.3845C11.7508 16.2848 11.7446 16.1845 11.7447 16.084C11.7447 16.0425 11.7447 16.001 11.7447 15.9588C11.8238 14.1796 13.787 12.2508 15.5612 12.21C15.6681 12.2075 15.7751 12.2122 15.8814 12.2243C16.8027 12.3309 17.3789 12.9998 17.3789 13.9936C17.3675 15.805 15.3344 17.8332 13.5217 17.8418Z" fill="white" stroke="white" stroke-width="0.2"/>
</svg>
