<svg width="18" height="18" viewBox="0 0 18 18" fill="none" xmlns="http://www.w3.org/2000/svg">
<path d="M14.355 9.70499C14.385 9.47999 14.4 9.24749 14.4 8.99999C14.4 8.75999 14.385 8.51999 14.3475 8.29499L15.87 7.10999C16.005 7.00499 16.0425 6.80249 15.96 6.65249L14.52 4.16249C14.43 3.99749 14.2425 3.94499 14.0775 3.99749L12.285 4.71749C11.91 4.43249 11.5125 4.19249 11.07 4.01249L10.8 2.10749C10.77 1.92749 10.62 1.79999 10.44 1.79999H7.55999C7.37999 1.79999 7.23749 1.92749 7.20749 2.10749L6.93749 4.01249C6.49499 4.19249 6.08999 4.43999 5.72249 4.71749L3.92999 3.99749C3.76499 3.93749 3.57749 3.99749 3.48749 4.16249L2.05499 6.65249C1.96499 6.80999 1.99499 7.00499 2.14499 7.10999L3.66749 8.29499C3.62999 8.51999 3.59999 8.76749 3.59999 8.99999C3.59999 9.23249 3.61499 9.47999 3.65249 9.70499L2.12999 10.89C1.99499 10.995 1.95749 11.1975 2.03999 11.3475L3.47999 13.8375C3.56999 14.0025 3.75749 14.055 3.92249 14.0025L5.71499 13.2825C6.08999 13.5675 6.48749 13.8075 6.92999 13.9875L7.19999 15.8925C7.23749 16.0725 7.37999 16.2 7.55999 16.2H10.44C10.62 16.2 10.77 16.0725 10.7925 15.8925L11.0625 13.9875C11.505 13.8075 11.91 13.5675 12.2775 13.2825L14.07 14.0025C14.235 14.0625 14.4225 14.0025 14.5125 13.8375L15.9525 11.3475C16.0425 11.1825 16.005 10.995 15.8625 10.89L14.355 9.70499ZM8.99999 11.7C7.51499 11.7 6.29999 10.485 6.29999 8.99999C6.29999 7.51499 7.51499 6.29999 8.99999 6.29999C10.485 6.29999 11.7 7.51499 11.7 8.99999C11.7 10.485 10.485 11.7 8.99999 11.7Z" fill="white"/>
</svg>
