<svg width="19" height="19" viewBox="0 0 19 19" fill="none" xmlns="http://www.w3.org/2000/svg">
<g clip-path="url(#clip0_144_5444)">
<path d="M2.22655 8.51217C3.76109 7.5596 5.47405 6.76457 7.07456 5.96548C9.82806 4.65664 12.5925 3.37048 15.3848 2.17307C15.9281 1.96905 16.9043 1.76952 17 2.67685C16.9476 3.96116 16.732 5.23796 16.5841 6.51475C16.2087 9.32254 15.7749 12.1207 15.3518 14.9192C15.206 15.8514 14.1698 16.334 13.5068 15.7374C11.9134 14.5245 10.3077 13.3234 8.73469 12.0824C8.2194 11.4923 8.69722 10.6449 9.15743 10.2236C10.4698 8.76606 11.8616 7.52773 13.1054 5.99489C13.4409 5.08183 12.4496 5.85133 12.1226 6.0871C10.326 7.48236 8.57328 8.96281 6.67906 10.1891C5.71149 10.7893 4.58377 10.2763 3.61664 9.94139C2.74948 9.5368 1.47877 9.12918 2.22646 8.51223L2.22655 8.51217Z" fill="white"/>
</g>
<defs>
<clipPath id="clip0_144_5444">
<rect width="19" height="19" fill="white"/>
</clipPath>
</defs>
</svg>
